<svg width="266" height="150" viewBox="0 0 266 150" fill="none" xmlns="http://www.w3.org/2000/svg">
<rect x="0.5" y="0.5" width="265" height="105" rx="9.5" fill="#FBFBF9" stroke="#979797"/>
<rect x="13.5" y="36.5" width="104" height="47" rx="9.5" fill="white" stroke="#4486AB"/>
<path d="M18.9717 23.4468H20.2021V19.2017L23.7021 13.5825H22.3008L19.6416 17.9644H19.5322L16.873 13.5825H15.4717L18.9717 19.2017V23.4468ZM27.1475 23.5767C29.2461 23.5767 30.5449 22.1274 30.5449 19.769V19.7554C30.5449 17.3901 29.2461 15.9478 27.1475 15.9478C25.0488 15.9478 23.75 17.3901 23.75 19.7554V19.769C23.75 22.1274 25.0488 23.5767 27.1475 23.5767ZM27.1475 22.5239C25.7529 22.5239 24.9668 21.5054 24.9668 19.769V19.7554C24.9668 18.0122 25.7529 17.0005 27.1475 17.0005C28.542 17.0005 29.3281 18.0122 29.3281 19.7554V19.769C29.3281 21.5054 28.542 22.5239 27.1475 22.5239ZM34.8584 23.5767C35.9385 23.5767 36.6836 23.1323 37.0459 22.3462H37.1553V23.4468H38.3447V16.0776H37.1553V20.439C37.1553 21.731 36.4648 22.5239 35.166 22.5239C33.9902 22.5239 33.5117 21.8882 33.5117 20.562V16.0776H32.3223V20.8491C32.3223 22.5923 33.1836 23.5767 34.8584 23.5767ZM40.5664 23.4468H41.7559V18.8804C41.7559 17.8003 42.5625 17.0825 43.6973 17.0825C43.957 17.0825 44.1826 17.1099 44.4287 17.1509V15.9956C44.3125 15.9751 44.0596 15.9478 43.834 15.9478C42.8359 15.9478 42.1455 16.3989 41.8652 17.1714H41.7559V16.0776H40.5664V23.4468ZM51.8594 23.5767C52.8506 23.5767 53.623 23.146 54.0879 22.3599H54.1973V23.4468H55.3867V18.4019C55.3867 16.8706 54.3818 15.9478 52.584 15.9478C51.0117 15.9478 49.8906 16.7271 49.6992 17.8823L49.6924 17.9233H50.8818L50.8887 17.9028C51.0801 17.3286 51.6611 17.0005 52.543 17.0005C53.6436 17.0005 54.1973 17.4927 54.1973 18.4019V19.0718L52.085 19.2017C50.3691 19.3042 49.3984 20.063 49.3984 21.3755V21.3892C49.3984 22.729 50.458 23.5767 51.8594 23.5767ZM50.6152 21.3618V21.3481C50.6152 20.6167 51.1074 20.2202 52.2285 20.1519L54.1973 20.0288V20.6987C54.1973 21.7515 53.3154 22.5444 52.1055 22.5444C51.251 22.5444 50.6152 22.1069 50.6152 21.3618ZM60.5752 23.5767C62.3457 23.5767 63.3369 22.6265 63.6377 21.2935L63.6514 21.2183L62.4756 21.2251L62.4619 21.2661C62.1885 22.0864 61.5596 22.5239 60.5684 22.5239C59.2559 22.5239 58.4082 21.437 58.4082 19.7417V19.728C58.4082 18.0669 59.2422 17.0005 60.5684 17.0005C61.6279 17.0005 62.2842 17.5884 62.4688 18.313L62.4756 18.3335H63.6582L63.6514 18.2925C63.4326 16.98 62.3594 15.9478 60.5684 15.9478C58.5039 15.9478 57.1914 17.438 57.1914 19.728V19.7417C57.1914 22.0796 58.5107 23.5767 60.5752 23.5767ZM68.4092 23.5767C70.1797 23.5767 71.1709 22.6265 71.4717 21.2935L71.4854 21.2183L70.3096 21.2251L70.2959 21.2661C70.0225 22.0864 69.3936 22.5239 68.4023 22.5239C67.0898 22.5239 66.2422 21.437 66.2422 19.7417V19.728C66.2422 18.0669 67.0762 17.0005 68.4023 17.0005C69.4619 17.0005 70.1182 17.5884 70.3027 18.313L70.3096 18.3335H71.4922L71.4854 18.2925C71.2666 16.98 70.1934 15.9478 68.4023 15.9478C66.3379 15.9478 65.0254 17.438 65.0254 19.728V19.7417C65.0254 22.0796 66.3447 23.5767 68.4092 23.5767ZM76.2568 23.5767C78.3555 23.5767 79.6543 22.1274 79.6543 19.769V19.7554C79.6543 17.3901 78.3555 15.9478 76.2568 15.9478C74.1582 15.9478 72.8594 17.3901 72.8594 19.7554V19.769C72.8594 22.1274 74.1582 23.5767 76.2568 23.5767ZM76.2568 22.5239C74.8623 22.5239 74.0762 21.5054 74.0762 19.769V19.7554C74.0762 18.0122 74.8623 17.0005 76.2568 17.0005C77.6514 17.0005 78.4375 18.0122 78.4375 19.7554V19.769C78.4375 21.5054 77.6514 22.5239 76.2568 22.5239ZM83.9678 23.5767C85.0479 23.5767 85.793 23.1323 86.1553 22.3462H86.2646V23.4468H87.4541V16.0776H86.2646V20.439C86.2646 21.731 85.5742 22.5239 84.2754 22.5239C83.0996 22.5239 82.6211 21.8882 82.6211 20.562V16.0776H81.4316V20.8491C81.4316 22.5923 82.293 23.5767 83.9678 23.5767ZM89.6758 23.4468H90.8652V19.0854C90.8652 17.7935 91.6104 17.0005 92.7861 17.0005C93.9619 17.0005 94.5088 17.6362 94.5088 18.9624V23.4468H95.6982V18.6753C95.6982 16.9253 94.7754 15.9478 93.1211 15.9478C92.0342 15.9478 91.3438 16.4058 90.9746 17.1851H90.8652V16.0776H89.6758V23.4468ZM100.47 23.5015C100.702 23.5015 100.928 23.4741 101.16 23.4331V22.4214C100.941 22.4419 100.825 22.4487 100.613 22.4487C99.8477 22.4487 99.5469 22.1001 99.5469 21.2319V17.062H101.16V16.0776H99.5469V14.1704H98.3164V16.0776H97.1543V17.062H98.3164V21.5327C98.3164 22.9409 98.9521 23.5015 100.47 23.5015Z" fill="black"/>
<path d="M40.1582 58H44.0068C46.1055 58 47.3496 56.9678 47.3496 55.2383V55.2246C47.3496 53.9258 46.4951 53.0029 45.1484 52.832V52.7227C46.0986 52.5518 46.8506 51.6221 46.8506 50.6035V50.5898C46.8506 49.0859 45.7432 48.1357 43.9316 48.1357H40.1582V58ZM43.6719 49.2227C44.8955 49.2227 45.6064 49.8037 45.6064 50.8018V50.8154C45.6064 51.8545 44.8477 52.3877 43.3574 52.3877H41.3887V49.2227H43.6719ZM43.7061 53.4473C45.2783 53.4473 46.085 54.0283 46.085 55.1631V55.1768C46.085 56.3115 45.3057 56.9131 43.8223 56.9131H41.3887V53.4473H43.7061ZM51.2324 58.1299C52.2236 58.1299 52.9961 57.6992 53.4609 56.9131H53.5703V58H54.7598V52.9551C54.7598 51.4238 53.7549 50.501 51.957 50.501C50.3848 50.501 49.2637 51.2803 49.0723 52.4355L49.0654 52.4766H50.2549L50.2617 52.4561C50.4531 51.8818 51.0342 51.5537 51.916 51.5537C53.0166 51.5537 53.5703 52.0459 53.5703 52.9551V53.625L51.458 53.7549C49.7422 53.8574 48.7715 54.6162 48.7715 55.9287V55.9424C48.7715 57.2822 49.8311 58.1299 51.2324 58.1299ZM49.9883 55.915V55.9014C49.9883 55.1699 50.4805 54.7734 51.6016 54.7051L53.5703 54.582V55.252C53.5703 56.3047 52.6885 57.0977 51.4785 57.0977C50.624 57.0977 49.9883 56.6602 49.9883 55.915ZM57.002 58H58.1914V47.7051H57.002V58ZM62.498 58.1299C63.4893 58.1299 64.2617 57.6992 64.7266 56.9131H64.8359V58H66.0254V52.9551C66.0254 51.4238 65.0205 50.501 63.2227 50.501C61.6504 50.501 60.5293 51.2803 60.3379 52.4355L60.3311 52.4766H61.5205L61.5273 52.4561C61.7188 51.8818 62.2998 51.5537 63.1816 51.5537C64.2822 51.5537 64.8359 52.0459 64.8359 52.9551V53.625L62.7236 53.7549C61.0078 53.8574 60.0371 54.6162 60.0371 55.9287V55.9424C60.0371 57.2822 61.0967 58.1299 62.498 58.1299ZM61.2539 55.915V55.9014C61.2539 55.1699 61.7461 54.7734 62.8672 54.7051L64.8359 54.582V55.252C64.8359 56.3047 63.9541 57.0977 62.7441 57.0977C61.8896 57.0977 61.2539 56.6602 61.2539 55.915ZM68.1992 58H69.3887V53.6387C69.3887 52.3467 70.1338 51.5537 71.3096 51.5537C72.4854 51.5537 73.0322 52.1895 73.0322 53.5156V58H74.2217V53.2285C74.2217 51.4785 73.2988 50.501 71.6445 50.501C70.5576 50.501 69.8672 50.959 69.498 51.7383H69.3887V50.6309H68.1992V58ZM79.3896 58.1299C81.1602 58.1299 82.1514 57.1797 82.4521 55.8467L82.4658 55.7715L81.29 55.7783L81.2764 55.8193C81.0029 56.6396 80.374 57.0771 79.3828 57.0771C78.0703 57.0771 77.2227 55.9902 77.2227 54.2949V54.2812C77.2227 52.6201 78.0566 51.5537 79.3828 51.5537C80.4424 51.5537 81.0986 52.1416 81.2832 52.8662L81.29 52.8867H82.4727L82.4658 52.8457C82.2471 51.5332 81.1738 50.501 79.3828 50.501C77.3184 50.501 76.0059 51.9912 76.0059 54.2812V54.2949C76.0059 56.6328 77.3252 58.1299 79.3896 58.1299ZM87.2168 58.1299C88.9531 58.1299 90.0059 57.1455 90.2588 56.1475L90.2725 56.0928H89.083L89.0557 56.1543C88.8574 56.5986 88.2422 57.0703 87.2441 57.0703C85.9316 57.0703 85.0908 56.1816 85.0566 54.6572H90.3613V54.1924C90.3613 51.9912 89.1445 50.501 87.1416 50.501C85.1387 50.501 83.8398 52.0596 83.8398 54.3359V54.3428C83.8398 56.6533 85.1113 58.1299 87.2168 58.1299ZM87.1348 51.5605C88.2217 51.5605 89.0283 52.251 89.1514 53.707H85.0771C85.207 52.3057 86.041 51.5605 87.1348 51.5605Z" fill="black"/>
<path d="M40.2852 73.0918H40.9531C40.0508 71.9258 39.4297 69.623 39.4297 67.6309C39.4297 65.6562 40.0508 63.3477 40.9531 62.1758H40.2852C39.166 63.6348 38.6445 65.5332 38.6445 67.6309C38.6445 69.7402 39.1719 71.6328 40.2852 73.0918ZM42.7051 71H43.5078V67.8125H45.7051C47.3164 67.8125 48.418 66.7461 48.418 65.1758V65.1641C48.418 63.5938 47.3164 62.5449 45.7051 62.5449H42.7051V71ZM45.5176 63.2598C46.8184 63.2598 47.6035 63.9805 47.6035 65.1699V65.1816C47.6035 66.377 46.8184 67.0977 45.5176 67.0977H43.5078V63.2598H45.5176ZM51.5117 71.1055C52.4434 71.1055 53.1992 70.666 53.5742 69.916H53.6445V71H54.4238V66.6875C54.4238 65.3574 53.5625 64.584 52.0859 64.584C50.7793 64.584 49.8242 65.2285 49.6602 66.2363L49.6543 66.2598H50.4336L50.4395 66.248C50.6035 65.6211 51.207 65.2754 52.0625 65.2754C53.082 65.2754 53.6445 65.7676 53.6445 66.6934V67.2852L51.6758 67.4141C50.2168 67.5137 49.4023 68.1523 49.4023 69.248V69.2598C49.4023 70.3848 50.293 71.1055 51.5117 71.1055ZM50.1934 69.248V69.2363C50.1934 68.5215 50.709 68.1172 51.7812 68.0469L53.6445 67.918V68.6504C53.6445 69.6523 52.7891 70.4258 51.6582 70.4258C50.8086 70.4258 50.1934 69.9688 50.1934 69.248ZM56.6035 73.1797C57.6172 73.1797 58.0977 72.7871 58.5605 71.5508L61.1094 64.6895H60.2891L58.3906 70.1621H58.3086L56.4043 64.6895H55.5723L57.9395 71.041L57.7812 71.5156C57.5234 72.2715 57.166 72.5293 56.5801 72.5293C56.4746 72.5293 56.3516 72.5293 56.2578 72.5117V73.1562C56.3691 73.1738 56.498 73.1797 56.6035 73.1797ZM64.4785 71.1055C65.8555 71.1055 66.916 70.3438 66.916 69.2598V69.248C66.916 68.3398 66.3242 67.8477 65.1055 67.5547L64.2324 67.3496C63.3945 67.1504 63.0078 66.8516 63.0078 66.3359V66.3242C63.0078 65.6973 63.6582 65.2344 64.4844 65.2344C65.3223 65.2344 65.9082 65.6328 66.0488 66.2188H66.8105C66.6641 65.2227 65.7617 64.584 64.4902 64.584C63.2188 64.584 62.2168 65.3398 62.2168 66.3594V66.3652C62.2168 67.25 62.7617 67.7363 63.9336 68.0117L64.8125 68.2227C65.7324 68.4395 66.125 68.7617 66.125 69.3066V69.3184C66.125 69.9746 65.4277 70.4492 64.502 70.4492C63.5879 70.4492 62.9844 70.0449 62.8145 69.418H62.0176C62.1465 70.4492 63.1016 71.1055 64.4785 71.1055ZM72.2129 71H72.9922V65.3398H74.4688V64.6895H72.9922V63.8984C72.9922 63.166 73.3262 62.7676 74.0527 62.7676C74.2344 62.7676 74.4102 62.7793 74.5273 62.7969V62.1699C74.334 62.1348 74.1406 62.1172 73.9121 62.1172C72.8105 62.1172 72.2129 62.709 72.2129 63.8809V64.6895H71.1641V65.3398H72.2129V71ZM78.248 71.1055C79.6426 71.1055 80.5625 70.3438 80.8086 69.4883L80.8262 69.4414H80.0469L80.0234 69.4824C79.8184 69.9746 79.1855 70.4082 78.2656 70.4082C77.0117 70.4082 76.2031 69.5234 76.1797 68.0469H80.9199V67.7188C80.9199 65.8496 79.877 64.584 78.1836 64.584C76.4902 64.584 75.3887 65.8848 75.3887 67.8535V67.8652C75.3887 69.8457 76.4785 71.1055 78.248 71.1055ZM78.1836 65.2754C79.2676 65.2754 80.0469 66.0137 80.1348 67.4141H76.1855C76.2852 66.0488 77.0938 65.2754 78.1836 65.2754ZM85.127 71.1055C86.5215 71.1055 87.4414 70.3438 87.6875 69.4883L87.7051 69.4414H86.9258L86.9023 69.4824C86.6973 69.9746 86.0645 70.4082 85.1445 70.4082C83.8906 70.4082 83.082 69.5234 83.0586 68.0469H87.7988V67.7188C87.7988 65.8496 86.7559 64.584 85.0625 64.584C83.3691 64.584 82.2676 65.8848 82.2676 67.8535V67.8652C82.2676 69.8457 83.3574 71.1055 85.127 71.1055ZM85.0625 65.2754C86.1465 65.2754 86.9258 66.0137 87.0137 67.4141H83.0645C83.1641 66.0488 83.9727 65.2754 85.0625 65.2754ZM89.709 73.0918C90.8223 71.6328 91.3496 69.7402 91.3496 67.6309C91.3496 65.5332 90.8281 63.6348 89.709 62.1758H89.041C89.9434 63.3477 90.5645 65.6562 90.5645 67.6309C90.5645 69.623 89.9434 71.9258 89.041 73.0918H89.709Z" fill="black"/>
<rect x="148.5" y="36.5" width="104" height="47" rx="9.5" fill="white" stroke="#4486AB"/>
<path d="M164.808 57.2324C167.009 57.2324 168.451 56.084 168.451 54.2383V54.2314C168.451 52.8096 167.638 51.9824 165.58 51.5244L164.486 51.2783C163.146 50.9844 162.606 50.4512 162.606 49.665V49.6582C162.606 48.626 163.557 48.0449 164.787 48.0381C166.072 48.0312 166.893 48.6738 167.029 49.542L167.043 49.6309H168.273L168.267 49.5352C168.164 48.0654 166.79 46.9033 164.821 46.9033C162.784 46.9033 161.355 48.0586 161.349 49.6924V49.6992C161.349 51.1279 162.203 52.0371 164.179 52.4746L165.272 52.7139C166.626 53.0146 167.193 53.5752 167.193 54.3955V54.4023C167.193 55.4072 166.216 56.0977 164.876 56.0977C163.454 56.0977 162.429 55.4756 162.34 54.4912L162.333 54.416H161.103L161.109 54.4912C161.253 56.0977 162.647 57.2324 164.808 57.2324ZM170.42 57H171.609V52.6387C171.609 51.3467 172.354 50.5537 173.53 50.5537C174.706 50.5537 175.253 51.1895 175.253 52.5156V57H176.442V52.2285C176.442 50.4785 175.52 49.501 173.865 49.501C172.778 49.501 172.088 49.959 171.719 50.7383H171.609V46.7051H170.42V57ZM179.225 48.209C179.676 48.209 180.045 47.8398 180.045 47.3887C180.045 46.9375 179.676 46.5684 179.225 46.5684C178.773 46.5684 178.404 46.9375 178.404 47.3887C178.404 47.8398 178.773 48.209 179.225 48.209ZM178.623 57H179.812V49.6309H178.623V57ZM185.062 57.1299C186.799 57.1299 187.852 56.1455 188.104 55.1475L188.118 55.0928H186.929L186.901 55.1543C186.703 55.5986 186.088 56.0703 185.09 56.0703C183.777 56.0703 182.937 55.1816 182.902 53.6572H188.207V53.1924C188.207 50.9912 186.99 49.501 184.987 49.501C182.984 49.501 181.686 51.0596 181.686 53.3359V53.3428C181.686 55.6533 182.957 57.1299 185.062 57.1299ZM184.98 50.5605C186.067 50.5605 186.874 51.251 186.997 52.707H182.923C183.053 51.3057 183.887 50.5605 184.98 50.5605ZM190.121 57H191.311V46.7051H190.121V57ZM196.314 57.1299C197.34 57.1299 198.16 56.6445 198.611 55.8242H198.721V57H199.91V46.7051H198.721V50.793H198.611C198.208 50.0068 197.326 49.501 196.314 49.501C194.441 49.501 193.225 50.998 193.225 53.3086V53.3223C193.225 55.6191 194.448 57.1299 196.314 57.1299ZM196.588 56.0771C195.241 56.0771 194.441 55.0381 194.441 53.3223V53.3086C194.441 51.5928 195.241 50.5537 196.588 50.5537C197.928 50.5537 198.748 51.6064 198.748 53.3086V53.3223C198.748 55.0244 197.928 56.0771 196.588 56.0771ZM205.201 57.1299C206.938 57.1299 207.99 56.1455 208.243 55.1475L208.257 55.0928H207.067L207.04 55.1543C206.842 55.5986 206.227 56.0703 205.229 56.0703C203.916 56.0703 203.075 55.1816 203.041 53.6572H208.346V53.1924C208.346 50.9912 207.129 49.501 205.126 49.501C203.123 49.501 201.824 51.0596 201.824 53.3359V53.3428C201.824 55.6533 203.096 57.1299 205.201 57.1299ZM205.119 50.5605C206.206 50.5605 207.013 51.251 207.136 52.707H203.062C203.191 51.3057 204.025 50.5605 205.119 50.5605ZM212.912 57.1299C213.938 57.1299 214.758 56.6445 215.209 55.8242H215.318V57H216.508V46.7051H215.318V50.793H215.209C214.806 50.0068 213.924 49.501 212.912 49.501C211.039 49.501 209.822 50.998 209.822 53.3086V53.3223C209.822 55.6191 211.046 57.1299 212.912 57.1299ZM213.186 56.0771C211.839 56.0771 211.039 55.0381 211.039 53.3223V53.3086C211.039 51.5928 211.839 50.5537 213.186 50.5537C214.525 50.5537 215.346 51.6064 215.346 53.3086V53.3223C215.346 55.0244 214.525 56.0771 213.186 56.0771ZM167.973 74.1299C169.839 74.1299 171.062 72.6191 171.062 70.3223V70.3086C171.062 67.998 169.846 66.501 167.973 66.501C166.961 66.501 166.079 67.0068 165.676 67.793H165.566V63.7051H164.377V74H165.566V72.8242H165.676C166.127 73.6445 166.947 74.1299 167.973 74.1299ZM167.699 73.0771C166.359 73.0771 165.539 72.0244 165.539 70.3223V70.3086C165.539 68.6064 166.359 67.5537 167.699 67.5537C169.046 67.5537 169.846 68.5928 169.846 70.3086V70.3223C169.846 72.0381 169.046 73.0771 167.699 73.0771ZM174.932 74.1299C175.923 74.1299 176.695 73.6992 177.16 72.9131H177.27V74H178.459V68.9551C178.459 67.4238 177.454 66.501 175.656 66.501C174.084 66.501 172.963 67.2803 172.771 68.4355L172.765 68.4766H173.954L173.961 68.4561C174.152 67.8818 174.733 67.5537 175.615 67.5537C176.716 67.5537 177.27 68.0459 177.27 68.9551V69.625L175.157 69.7549C173.441 69.8574 172.471 70.6162 172.471 71.9287V71.9424C172.471 73.2822 173.53 74.1299 174.932 74.1299ZM173.688 71.915V71.9014C173.688 71.1699 174.18 70.7734 175.301 70.7051L177.27 70.582V71.252C177.27 72.3047 176.388 73.0977 175.178 73.0977C174.323 73.0977 173.688 72.6602 173.688 71.915ZM180.701 74H181.891V63.7051H180.701V74ZM186.197 74.1299C187.188 74.1299 187.961 73.6992 188.426 72.9131H188.535V74H189.725V68.9551C189.725 67.4238 188.72 66.501 186.922 66.501C185.35 66.501 184.229 67.2803 184.037 68.4355L184.03 68.4766H185.22L185.227 68.4561C185.418 67.8818 185.999 67.5537 186.881 67.5537C187.981 67.5537 188.535 68.0459 188.535 68.9551V69.625L186.423 69.7549C184.707 69.8574 183.736 70.6162 183.736 71.9287V71.9424C183.736 73.2822 184.796 74.1299 186.197 74.1299ZM184.953 71.915V71.9014C184.953 71.1699 185.445 70.7734 186.566 70.7051L188.535 70.582V71.252C188.535 72.3047 187.653 73.0977 186.443 73.0977C185.589 73.0977 184.953 72.6602 184.953 71.915ZM191.898 74H193.088V69.6387C193.088 68.3467 193.833 67.5537 195.009 67.5537C196.185 67.5537 196.731 68.1895 196.731 69.5156V74H197.921V69.2285C197.921 67.4785 196.998 66.501 195.344 66.501C194.257 66.501 193.566 66.959 193.197 67.7383H193.088V66.6309H191.898V74ZM203.089 74.1299C204.859 74.1299 205.851 73.1797 206.151 71.8467L206.165 71.7715L204.989 71.7783L204.976 71.8193C204.702 72.6396 204.073 73.0771 203.082 73.0771C201.77 73.0771 200.922 71.9902 200.922 70.2949V70.2812C200.922 68.6201 201.756 67.5537 203.082 67.5537C204.142 67.5537 204.798 68.1416 204.982 68.8662L204.989 68.8867H206.172L206.165 68.8457C205.946 67.5332 204.873 66.501 203.082 66.501C201.018 66.501 199.705 67.9912 199.705 70.2812V70.2949C199.705 72.6328 201.024 74.1299 203.089 74.1299ZM210.916 74.1299C212.652 74.1299 213.705 73.1455 213.958 72.1475L213.972 72.0928H212.782L212.755 72.1543C212.557 72.5986 211.941 73.0703 210.943 73.0703C209.631 73.0703 208.79 72.1816 208.756 70.6572H214.061V70.1924C214.061 67.9912 212.844 66.501 210.841 66.501C208.838 66.501 207.539 68.0596 207.539 70.3359V70.3428C207.539 72.6533 208.811 74.1299 210.916 74.1299ZM210.834 67.5605C211.921 67.5605 212.728 68.251 212.851 69.707H208.776C208.906 68.3057 209.74 67.5605 210.834 67.5605Z" fill="black"/>
<g clip-path="url(#clip0_3181_16939)">
<path d="M234.561 69.7142C234.351 69.8511 234.109 69.9238 233.861 69.9238C233.613 69.9238 233.371 69.8511 233.161 69.7142C229.668 67.3884 226 65.0318 226 61.7434V54.0574C226.004 53.9036 226.054 53.7549 226.144 53.6325C226.234 53.5102 226.359 53.4205 226.501 53.3763L233.459 50.9619C233.72 50.8717 234.002 50.8717 234.263 50.9619L241.221 53.3786C241.363 53.4228 241.488 53.5125 241.578 53.6348C241.668 53.7571 241.718 53.9058 241.722 54.0597V61.7434C241.721 65.0318 238.053 67.3884 234.561 69.7142Z" fill="black"/>
<path d="M236.746 57.6998C236.707 56.9432 236.383 56.2328 235.843 55.7228C235.302 55.2128 234.59 54.9443 233.86 54.9755C233.131 54.9446 232.419 55.2132 231.879 55.7232C231.339 56.2332 231.014 56.9434 230.976 57.6998V58.2322H232.171V57.6998C232.194 57.2577 232.385 56.8432 232.701 56.5458C233.017 56.2484 233.434 56.092 233.86 56.1106C234.287 56.0917 234.703 56.2479 235.02 56.5454C235.336 56.8428 235.527 57.2575 235.551 57.6998V58.2322H236.746V57.6998Z" fill="white"/>
<path d="M237.788 59.8135C237.771 59.5221 237.644 59.2495 237.435 59.0549C237.225 58.8603 236.95 58.7597 236.669 58.7748H231.051C230.771 58.76 230.496 58.8608 230.286 59.0553C230.077 59.2498 229.95 59.5224 229.933 59.8135V63.8557C229.939 64.0093 229.992 64.157 230.084 64.277C230.177 64.397 230.304 64.4829 230.447 64.522C232.676 65.1991 235.046 65.1991 237.275 64.522C237.419 64.4842 237.547 64.3987 237.64 64.2784C237.733 64.1581 237.785 64.0097 237.789 63.8557V59.8135H237.788Z" fill="white"/>
<path d="M234.411 61.8885V62.901C234.391 63.0381 234.325 63.1633 234.224 63.2538C234.123 63.3443 233.994 63.3941 233.86 63.3941C233.726 63.3941 233.597 63.3443 233.496 63.2538C233.395 63.1633 233.329 63.0381 233.309 62.901V61.8885C233.163 61.8136 233.04 61.6988 232.953 61.5565C232.866 61.4142 232.819 61.2499 232.815 61.0814C232.835 60.8133 232.956 60.564 233.151 60.3877C233.347 60.2113 233.602 60.122 233.86 60.1392C234.119 60.122 234.374 60.2113 234.57 60.3877C234.765 60.564 234.886 60.8133 234.906 61.0814C234.902 61.2498 234.854 61.414 234.767 61.556C234.68 61.6981 234.556 61.8127 234.411 61.8873V61.8885Z" fill="black"/>
</g>
<path d="M64.2929 120.707C64.6834 121.098 65.3166 121.098 65.7071 120.707L72.0711 114.343C72.4616 113.953 72.4616 113.319 72.0711 112.929C71.6805 112.538 71.0474 112.538 70.6569 112.929L65 118.586L59.3431 112.929C58.9526 112.538 58.3195 112.538 57.9289 112.929C57.5384 113.319 57.5384 113.953 57.9289 114.343L64.2929 120.707ZM64 84L64 120L66 120L66 84L64 84Z" fill="#4486AB"/>
<path d="M200.707 83.2929C200.317 82.9024 199.683 82.9024 199.293 83.2929L192.929 89.6569C192.538 90.0474 192.538 90.6805 192.929 91.0711C193.319 91.4616 193.953 91.4616 194.343 91.0711L200 85.4142L205.657 91.0711C206.047 91.4616 206.681 91.4616 207.071 91.0711C207.462 90.6805 207.462 90.0474 207.071 89.6569L200.707 83.2929ZM201 120L201 84L199 84L199 120L201 120Z" fill="#4486AB"/>
<rect x="0.5" y="120.5" width="265" height="29" rx="4.5" fill="white" stroke="#4486AB"/>
<path d="M211.189 140.199C212.906 140.199 214.131 139.01 214.131 137.305V137.293C214.131 135.658 212.988 134.469 211.4 134.469C210.633 134.469 209.971 134.779 209.596 135.348H209.502L209.789 132.488H213.662V131.545H208.957L208.512 136.402H209.426C209.531 136.203 209.666 136.039 209.812 135.898C210.176 135.553 210.656 135.383 211.219 135.383C212.314 135.383 213.1 136.186 213.1 137.311V137.322C213.1 138.465 212.326 139.268 211.201 139.268C210.211 139.268 209.479 138.623 209.379 137.814L209.373 137.768H208.359L208.365 137.832C208.488 139.186 209.613 140.199 211.189 140.199ZM218.66 140.199C220.529 140.199 221.654 138.494 221.654 135.775V135.764C221.654 133.045 220.529 131.346 218.66 131.346C216.791 131.346 215.678 133.045 215.678 135.764V135.775C215.678 138.494 216.791 140.199 218.66 140.199ZM218.66 139.279C217.447 139.279 216.738 137.932 216.738 135.775V135.764C216.738 133.607 217.447 132.271 218.66 132.271C219.873 132.271 220.594 133.607 220.594 135.764V135.775C220.594 137.932 219.873 139.279 218.66 139.279ZM230.303 140.199C232.102 140.199 233.438 139.197 233.719 137.65V137.639H232.652L232.641 137.65C232.377 138.623 231.48 139.227 230.303 139.227C228.674 139.227 227.654 137.896 227.654 135.781V135.77C227.654 133.654 228.674 132.318 230.297 132.318C231.463 132.318 232.365 133.004 232.646 134.088L232.652 134.1H233.713L233.719 134.088C233.467 132.465 232.078 131.346 230.297 131.346C228 131.346 226.57 133.045 226.57 135.77V135.781C226.57 138.5 228.006 140.199 230.303 140.199ZM238.893 140.199C240.691 140.199 242.027 139.197 242.309 137.65V137.639H241.242L241.23 137.65C240.967 138.623 240.07 139.227 238.893 139.227C237.264 139.227 236.244 137.896 236.244 135.781V135.77C236.244 133.654 237.264 132.318 238.887 132.318C240.053 132.318 240.955 133.004 241.236 134.088L241.242 134.1H242.303L242.309 134.088C242.057 132.465 240.668 131.346 238.887 131.346C236.59 131.346 235.16 133.045 235.16 135.77V135.781C235.16 138.5 236.596 140.199 238.893 140.199ZM244.078 140H246.979C249.492 140 250.969 138.436 250.969 135.775V135.764C250.969 133.109 249.486 131.545 246.979 131.545H244.078V140ZM245.133 139.051V132.494H246.908C248.783 132.494 249.891 133.713 249.891 135.775V135.787C249.891 137.844 248.795 139.051 246.908 139.051H245.133ZM254.836 140.111C256.271 140.111 257.367 139.332 257.367 138.207V138.195C257.367 137.293 256.793 136.777 255.604 136.49L254.631 136.256C253.887 136.074 253.57 135.805 253.57 135.377V135.365C253.57 134.809 254.121 134.422 254.871 134.422C255.633 134.422 256.125 134.768 256.26 135.266H257.262C257.121 134.234 256.201 133.572 254.877 133.572C253.535 133.572 252.527 134.363 252.527 135.412V135.418C252.527 136.326 253.061 136.842 254.244 137.123L255.223 137.357C256.002 137.545 256.324 137.844 256.324 138.271V138.283C256.324 138.857 255.721 139.262 254.871 139.262C254.062 139.262 253.559 138.916 253.389 138.389H252.346C252.463 139.432 253.43 140.111 254.836 140.111Z" fill="black"/>
<path d="M31.9785 140.211C34.0059 140.211 35.2773 139.18 35.2773 137.533V137.527C35.2773 136.25 34.5332 135.535 32.752 135.16L31.8438 134.967C30.7891 134.744 30.3613 134.369 30.3613 133.771V133.766C30.3613 133.045 31.0293 132.605 31.9668 132.605C32.9336 132.6 33.5605 133.068 33.666 133.725L33.6777 133.795H35.125L35.1191 133.719C35.0137 132.359 33.8477 131.334 31.9727 131.334C30.1445 131.334 28.8438 132.354 28.8438 133.865V133.871C28.8438 135.131 29.5938 135.939 31.3223 136.303L32.2305 136.49C33.3203 136.725 33.7598 137.094 33.7598 137.703V137.709C33.7598 138.436 33.0449 138.939 32.0254 138.939C30.9531 138.939 30.1973 138.471 30.127 137.762L30.1211 137.703H28.6562L28.6621 137.785C28.7676 139.244 30.0156 140.211 31.9785 140.211ZM36.8828 140H38.3418V136.268C38.3418 135.307 38.8809 134.697 39.748 134.697C40.6328 134.697 41.0371 135.201 41.0371 136.197V140H42.4961V135.857C42.4961 134.334 41.7168 133.473 40.2871 133.473C39.3613 133.473 38.7461 133.889 38.4414 134.574H38.3418V131.117H36.8828V140ZM44.9688 132.523C45.4434 132.523 45.8359 132.143 45.8359 131.662C45.8359 131.188 45.4434 130.801 44.9688 130.801C44.4883 130.801 44.0957 131.188 44.0957 131.662C44.0957 132.143 44.4883 132.523 44.9688 132.523ZM44.2363 140H45.6953V133.596H44.2363V140ZM50.2305 140.129C51.9707 140.129 52.8262 139.127 53.0312 138.301L53.0488 138.248H51.6602L51.6426 138.289C51.502 138.582 51.0508 138.98 50.2598 138.98C49.2695 138.98 48.6484 138.312 48.6309 137.164H53.1074V136.684C53.1074 134.75 51.9824 133.473 50.1602 133.473C48.3379 133.473 47.1719 134.791 47.1719 136.807V136.812C47.1719 138.852 48.3262 140.129 50.2305 140.129ZM50.1777 134.615C50.9922 134.615 51.584 135.137 51.6836 136.186H48.6426C48.7539 135.166 49.3633 134.615 50.1777 134.615ZM54.625 140H56.084V131.117H54.625V140ZM60.2383 140.105C61.1406 140.105 61.832 139.695 62.1836 138.998H62.2832V140H63.748V131.117H62.2832V134.615H62.1836C61.8496 133.924 61.1172 133.49 60.2383 133.49C58.6152 133.49 57.6133 134.756 57.6133 136.795V136.807C57.6133 138.834 58.6328 140.105 60.2383 140.105ZM60.6953 138.875C59.6992 138.875 59.0957 138.096 59.0957 136.807V136.795C59.0957 135.506 59.7051 134.721 60.6953 134.721C61.6855 134.721 62.3066 135.512 62.3066 136.795V136.807C62.3066 138.09 61.6914 138.875 60.6953 138.875ZM66.332 132.523C66.8066 132.523 67.1992 132.143 67.1992 131.662C67.1992 131.188 66.8066 130.801 66.332 130.801C65.8516 130.801 65.459 131.188 65.459 131.662C65.459 132.143 65.8516 132.523 66.332 132.523ZM65.5996 140H67.0586V133.596H65.5996V140ZM68.8516 140H70.3105V136.268C70.3105 135.307 70.8496 134.697 71.7168 134.697C72.6016 134.697 73.0059 135.201 73.0059 136.197V140H74.4648V135.857C74.4648 134.334 73.6855 133.473 72.2559 133.473C71.3301 133.473 70.7148 133.889 70.4102 134.574H70.3105V133.596H68.8516V140ZM78.9414 142.25C80.8105 142.25 81.9941 141.318 81.9941 139.842V133.596H80.5352V134.65H80.459C80.0957 133.924 79.4043 133.49 78.5195 133.49C76.8672 133.49 75.8594 134.768 75.8594 136.619V136.631C75.8594 138.447 76.8672 139.701 78.4902 139.701C79.375 139.701 80.0723 139.326 80.4414 138.641H80.541V139.865C80.541 140.686 79.9609 141.148 78.9648 141.148C78.1504 141.148 77.6641 140.861 77.5645 140.451L77.5586 140.434H76.0996L76.0938 140.451C76.2402 141.529 77.2539 142.25 78.9414 142.25ZM78.9414 138.541C77.9277 138.541 77.3535 137.762 77.3535 136.631V136.619C77.3535 135.488 77.9277 134.703 78.9414 134.703C79.9492 134.703 80.5645 135.488 80.5645 136.619V136.631C80.5645 137.762 79.9551 138.541 78.9414 138.541ZM89.5 140.029C89.7812 140.029 90.0508 140.006 90.2617 139.965V138.84C90.0859 138.857 89.9746 138.863 89.7695 138.863C89.1602 138.863 88.9082 138.594 88.9082 137.955V134.727H90.2617V133.596H88.9082V132.025H87.4258V133.596H86.4297V134.727H87.4258V138.301C87.4258 139.537 88.0293 140.029 89.5 140.029ZM91.7148 140H93.1738V136.279C93.1738 135.365 93.8125 134.785 94.7852 134.785C95.0371 134.785 95.2773 134.82 95.5117 134.867V133.561C95.3711 133.52 95.1426 133.49 94.9199 133.49C94.0762 133.49 93.4902 133.895 93.2734 134.58H93.1738V133.596H91.7148V140ZM98.3711 140.105C99.2148 140.105 99.8945 139.742 100.246 139.121H100.346V140H101.787V135.623C101.787 134.27 100.861 133.473 99.2148 133.473C97.6914 133.473 96.6602 134.188 96.5195 135.266L96.5137 135.318H97.8906L97.8965 135.295C98.043 134.873 98.4766 134.633 99.1445 134.633C99.9297 134.633 100.346 134.984 100.346 135.623V136.174L98.6992 136.273C97.1406 136.367 96.2676 137.035 96.2676 138.178V138.189C96.2676 139.355 97.1523 140.105 98.3711 140.105ZM97.709 138.119V138.107C97.709 137.58 98.0898 137.281 98.9043 137.229L100.346 137.135V137.65C100.346 138.412 99.6953 138.986 98.8164 138.986C98.1719 138.986 97.709 138.664 97.709 138.119ZM103.539 140H104.998V136.268C104.998 135.307 105.537 134.697 106.404 134.697C107.289 134.697 107.693 135.201 107.693 136.197V140H109.152V135.857C109.152 134.334 108.373 133.473 106.943 133.473C106.018 133.473 105.402 133.889 105.098 134.574H104.998V133.596H103.539V140ZM113.295 140.129C114.871 140.129 116.014 139.314 116.014 138.096V138.084C116.014 137.152 115.422 136.619 114.168 136.338L113.131 136.109C112.439 135.951 112.17 135.723 112.17 135.348V135.342C112.17 134.861 112.639 134.545 113.289 134.545C113.975 134.545 114.396 134.873 114.502 135.277L114.508 135.295H115.879V135.283C115.785 134.246 114.854 133.473 113.295 133.473C111.783 133.473 110.729 134.27 110.729 135.424V135.43C110.729 136.373 111.309 136.947 112.527 137.217L113.564 137.451C114.268 137.609 114.549 137.855 114.549 138.23V138.242C114.549 138.723 114.045 139.051 113.318 139.051C112.592 139.051 112.164 138.74 112.012 138.295L112.006 138.283H110.559V138.295C110.682 139.379 111.666 140.129 113.295 140.129ZM119.23 140.105C120.074 140.105 120.754 139.742 121.105 139.121H121.205V140H122.646V135.623C122.646 134.27 121.721 133.473 120.074 133.473C118.551 133.473 117.52 134.188 117.379 135.266L117.373 135.318H118.75L118.756 135.295C118.902 134.873 119.336 134.633 120.004 134.633C120.789 134.633 121.205 134.984 121.205 135.623V136.174L119.559 136.273C118 136.367 117.127 137.035 117.127 138.178V138.189C117.127 139.355 118.012 140.105 119.23 140.105ZM118.568 138.119V138.107C118.568 137.58 118.949 137.281 119.764 137.229L121.205 137.135V137.65C121.205 138.412 120.555 138.986 119.676 138.986C119.031 138.986 118.568 138.664 118.568 138.119ZM127.146 140.129C128.77 140.129 129.713 139.256 129.924 137.943L129.936 137.896L128.559 137.902L128.547 137.926C128.365 138.6 127.902 138.945 127.146 138.945C126.156 138.945 125.564 138.148 125.564 136.789V136.777C125.564 135.436 126.15 134.65 127.146 134.65C127.943 134.65 128.418 135.096 128.553 135.717L128.559 135.734H129.936V135.711C129.771 134.387 128.787 133.473 127.141 133.473C125.213 133.473 124.082 134.709 124.082 136.777V136.789C124.082 138.881 125.219 140.129 127.146 140.129ZM133.926 140.029C134.207 140.029 134.477 140.006 134.688 139.965V138.84C134.512 138.857 134.4 138.863 134.195 138.863C133.586 138.863 133.334 138.594 133.334 137.955V134.727H134.688V133.596H133.334V132.025H131.852V133.596H130.855V134.727H131.852V138.301C131.852 139.537 132.455 140.029 133.926 140.029ZM136.891 132.523C137.365 132.523 137.758 132.143 137.758 131.662C137.758 131.188 137.365 130.801 136.891 130.801C136.41 130.801 136.018 131.188 136.018 131.662C136.018 132.143 136.41 132.523 136.891 132.523ZM136.158 140H137.617V133.596H136.158V140ZM142.176 140.129C144.092 140.129 145.258 138.875 145.258 136.801V136.789C145.258 134.727 144.086 133.473 142.176 133.473C140.271 133.473 139.094 134.732 139.094 136.789V136.801C139.094 138.875 140.254 140.129 142.176 140.129ZM142.176 138.945C141.162 138.945 140.582 138.154 140.582 136.807V136.795C140.582 135.447 141.162 134.65 142.176 134.65C143.184 134.65 143.764 135.447 143.764 136.795V136.807C143.764 138.154 143.189 138.945 142.176 138.945ZM146.723 140H148.182V136.268C148.182 135.307 148.721 134.697 149.588 134.697C150.473 134.697 150.877 135.201 150.877 136.197V140H152.336V135.857C152.336 134.334 151.557 133.473 150.127 133.473C149.201 133.473 148.586 133.889 148.281 134.574H148.182V133.596H146.723V140ZM155.143 135.764C155.682 135.764 156.074 135.359 156.074 134.844C156.074 134.322 155.682 133.918 155.143 133.918C154.609 133.918 154.211 134.322 154.211 134.844C154.211 135.359 154.609 135.764 155.143 135.764ZM155.143 140.117C155.682 140.117 156.074 139.707 156.074 139.191C156.074 138.67 155.682 138.266 155.143 138.266C154.609 138.266 154.211 138.67 154.211 139.191C154.211 139.707 154.609 140.117 155.143 140.117Z" fill="black"/>
<g clip-path="url(#clip1_3181_16939)">
<path d="M15.6237 143.813C15.4371 143.935 15.221 144 15.0005 144C14.7799 144 14.5639 143.935 14.3773 143.813C11.2666 141.735 8 139.63 8 136.692V129.826C8.00326 129.689 8.04818 129.556 8.12834 129.447C8.2085 129.337 8.3198 129.257 8.44633 129.218L14.6423 127.061C14.8748 126.98 15.1261 126.98 15.3586 127.061L21.5546 129.22C21.6812 129.259 21.7925 129.339 21.8726 129.449C21.9528 129.558 21.9977 129.691 22.001 129.828V136.692C22 139.63 18.7334 141.735 15.6237 143.813Z" fill="black"/>
<path d="M17.5698 133.08C17.5355 132.404 17.2464 131.77 16.7653 131.314C16.2843 130.858 15.6499 130.619 15 130.646C14.3502 130.619 13.7162 130.859 13.2353 131.314C12.7544 131.77 12.4655 132.404 12.4312 133.08V133.556H13.4953V133.08C13.5165 132.685 13.6863 132.315 13.9678 132.049C14.2494 131.783 14.6202 131.644 15 131.66C15.3799 131.644 15.751 131.783 16.0328 132.049C16.3146 132.314 16.4845 132.685 16.5056 133.08V133.556H17.5698V133.08Z" fill="white"/>
<path d="M18.4976 134.968C18.4827 134.708 18.3696 134.464 18.1828 134.291C17.9961 134.117 17.7509 134.027 17.5006 134.04H12.4984C12.2483 134.027 12.0034 134.117 11.8168 134.291C11.6303 134.465 11.5173 134.708 11.5024 134.968V138.579C11.5073 138.716 11.5545 138.848 11.6369 138.956C11.7194 139.063 11.8328 139.139 11.9605 139.174C13.9455 139.779 16.0555 139.779 18.0405 139.174C18.1688 139.141 18.2829 139.064 18.3656 138.957C18.4482 138.849 18.4949 138.717 18.4985 138.579V134.968H18.4976Z" fill="white"/>
<path d="M15.4902 136.822V137.726C15.4728 137.849 15.4136 137.961 15.3235 138.041C15.2335 138.122 15.1185 138.167 14.9995 138.167C14.8806 138.167 14.7656 138.122 14.6755 138.041C14.5854 137.961 14.5263 137.849 14.5088 137.726V136.822C14.3793 136.755 14.2698 136.652 14.1923 136.525C14.1148 136.398 14.0723 136.251 14.0693 136.101C14.0868 135.861 14.1943 135.639 14.3685 135.481C14.5428 135.324 14.7697 135.244 15 135.259C15.2304 135.244 15.4572 135.324 15.6315 135.481C15.8057 135.639 15.9132 135.861 15.9307 136.101C15.9275 136.251 15.8847 136.398 15.8071 136.525C15.7294 136.652 15.6198 136.754 15.4902 136.821V136.822Z" fill="black"/>
</g>
<defs>
<clipPath id="clip0_3181_16939">
<rect width="15.7208" height="19.0305" fill="white" transform="translate(226 50.8936)"/>
</clipPath>
<clipPath id="clip1_3181_16939">
<rect width="14" height="17" fill="white" transform="translate(8 127)"/>
</clipPath>
</defs>
</svg>
