<svg width="266" height="262" viewBox="0 0 266 262" fill="none" xmlns="http://www.w3.org/2000/svg">
<rect x="0.5" y="0.5" width="265" height="105" rx="9.5" fill="#FBFBF9" stroke="#979797"/>
<rect x="13.5" y="36.5" width="104" height="47" rx="9.5" fill="white" stroke="#4486AB"/>
<path d="M18.9717 23.4468H20.2021V19.2017L23.7021 13.5825H22.3008L19.6416 17.9644H19.5322L16.873 13.5825H15.4717L18.9717 19.2017V23.4468ZM27.1475 23.5767C29.2461 23.5767 30.5449 22.1274 30.5449 19.769V19.7554C30.5449 17.3901 29.2461 15.9478 27.1475 15.9478C25.0488 15.9478 23.75 17.3901 23.75 19.7554V19.769C23.75 22.1274 25.0488 23.5767 27.1475 23.5767ZM27.1475 22.5239C25.7529 22.5239 24.9668 21.5054 24.9668 19.769V19.7554C24.9668 18.0122 25.7529 17.0005 27.1475 17.0005C28.542 17.0005 29.3281 18.0122 29.3281 19.7554V19.769C29.3281 21.5054 28.542 22.5239 27.1475 22.5239ZM34.8584 23.5767C35.9385 23.5767 36.6836 23.1323 37.0459 22.3462H37.1553V23.4468H38.3447V16.0776H37.1553V20.439C37.1553 21.731 36.4648 22.5239 35.166 22.5239C33.9902 22.5239 33.5117 21.8882 33.5117 20.562V16.0776H32.3223V20.8491C32.3223 22.5923 33.1836 23.5767 34.8584 23.5767ZM40.5664 23.4468H41.7559V18.8804C41.7559 17.8003 42.5625 17.0825 43.6973 17.0825C43.957 17.0825 44.1826 17.1099 44.4287 17.1509V15.9956C44.3125 15.9751 44.0596 15.9478 43.834 15.9478C42.8359 15.9478 42.1455 16.3989 41.8652 17.1714H41.7559V16.0776H40.5664V23.4468ZM51.8594 23.5767C52.8506 23.5767 53.623 23.146 54.0879 22.3599H54.1973V23.4468H55.3867V18.4019C55.3867 16.8706 54.3818 15.9478 52.584 15.9478C51.0117 15.9478 49.8906 16.7271 49.6992 17.8823L49.6924 17.9233H50.8818L50.8887 17.9028C51.0801 17.3286 51.6611 17.0005 52.543 17.0005C53.6436 17.0005 54.1973 17.4927 54.1973 18.4019V19.0718L52.085 19.2017C50.3691 19.3042 49.3984 20.063 49.3984 21.3755V21.3892C49.3984 22.729 50.458 23.5767 51.8594 23.5767ZM50.6152 21.3618V21.3481C50.6152 20.6167 51.1074 20.2202 52.2285 20.1519L54.1973 20.0288V20.6987C54.1973 21.7515 53.3154 22.5444 52.1055 22.5444C51.251 22.5444 50.6152 22.1069 50.6152 21.3618ZM60.5752 23.5767C62.3457 23.5767 63.3369 22.6265 63.6377 21.2935L63.6514 21.2183L62.4756 21.2251L62.4619 21.2661C62.1885 22.0864 61.5596 22.5239 60.5684 22.5239C59.2559 22.5239 58.4082 21.437 58.4082 19.7417V19.728C58.4082 18.0669 59.2422 17.0005 60.5684 17.0005C61.6279 17.0005 62.2842 17.5884 62.4688 18.313L62.4756 18.3335H63.6582L63.6514 18.2925C63.4326 16.98 62.3594 15.9478 60.5684 15.9478C58.5039 15.9478 57.1914 17.438 57.1914 19.728V19.7417C57.1914 22.0796 58.5107 23.5767 60.5752 23.5767ZM68.4092 23.5767C70.1797 23.5767 71.1709 22.6265 71.4717 21.2935L71.4854 21.2183L70.3096 21.2251L70.2959 21.2661C70.0225 22.0864 69.3936 22.5239 68.4023 22.5239C67.0898 22.5239 66.2422 21.437 66.2422 19.7417V19.728C66.2422 18.0669 67.0762 17.0005 68.4023 17.0005C69.4619 17.0005 70.1182 17.5884 70.3027 18.313L70.3096 18.3335H71.4922L71.4854 18.2925C71.2666 16.98 70.1934 15.9478 68.4023 15.9478C66.3379 15.9478 65.0254 17.438 65.0254 19.728V19.7417C65.0254 22.0796 66.3447 23.5767 68.4092 23.5767ZM76.2568 23.5767C78.3555 23.5767 79.6543 22.1274 79.6543 19.769V19.7554C79.6543 17.3901 78.3555 15.9478 76.2568 15.9478C74.1582 15.9478 72.8594 17.3901 72.8594 19.7554V19.769C72.8594 22.1274 74.1582 23.5767 76.2568 23.5767ZM76.2568 22.5239C74.8623 22.5239 74.0762 21.5054 74.0762 19.769V19.7554C74.0762 18.0122 74.8623 17.0005 76.2568 17.0005C77.6514 17.0005 78.4375 18.0122 78.4375 19.7554V19.769C78.4375 21.5054 77.6514 22.5239 76.2568 22.5239ZM83.9678 23.5767C85.0479 23.5767 85.793 23.1323 86.1553 22.3462H86.2646V23.4468H87.4541V16.0776H86.2646V20.439C86.2646 21.731 85.5742 22.5239 84.2754 22.5239C83.0996 22.5239 82.6211 21.8882 82.6211 20.562V16.0776H81.4316V20.8491C81.4316 22.5923 82.293 23.5767 83.9678 23.5767ZM89.6758 23.4468H90.8652V19.0854C90.8652 17.7935 91.6104 17.0005 92.7861 17.0005C93.9619 17.0005 94.5088 17.6362 94.5088 18.9624V23.4468H95.6982V18.6753C95.6982 16.9253 94.7754 15.9478 93.1211 15.9478C92.0342 15.9478 91.3438 16.4058 90.9746 17.1851H90.8652V16.0776H89.6758V23.4468ZM100.47 23.5015C100.702 23.5015 100.928 23.4741 101.16 23.4331V22.4214C100.941 22.4419 100.825 22.4487 100.613 22.4487C99.8477 22.4487 99.5469 22.1001 99.5469 21.2319V17.062H101.16V16.0776H99.5469V14.1704H98.3164V16.0776H97.1543V17.062H98.3164V21.5327C98.3164 22.9409 98.9521 23.5015 100.47 23.5015Z" fill="black"/>
<rect x="148.5" y="36.5" width="104" height="47" rx="9.5" fill="white" stroke="#4486AB"/>
<path d="M164.808 57.2324C167.009 57.2324 168.451 56.084 168.451 54.2383V54.2314C168.451 52.8096 167.638 51.9824 165.58 51.5244L164.486 51.2783C163.146 50.9844 162.606 50.4512 162.606 49.665V49.6582C162.606 48.626 163.557 48.0449 164.787 48.0381C166.072 48.0312 166.893 48.6738 167.029 49.542L167.043 49.6309H168.273L168.267 49.5352C168.164 48.0654 166.79 46.9033 164.821 46.9033C162.784 46.9033 161.355 48.0586 161.349 49.6924V49.6992C161.349 51.1279 162.203 52.0371 164.179 52.4746L165.272 52.7139C166.626 53.0146 167.193 53.5752 167.193 54.3955V54.4023C167.193 55.4072 166.216 56.0977 164.876 56.0977C163.454 56.0977 162.429 55.4756 162.34 54.4912L162.333 54.416H161.103L161.109 54.4912C161.253 56.0977 162.647 57.2324 164.808 57.2324ZM170.42 57H171.609V52.6387C171.609 51.3467 172.354 50.5537 173.53 50.5537C174.706 50.5537 175.253 51.1895 175.253 52.5156V57H176.442V52.2285C176.442 50.4785 175.52 49.501 173.865 49.501C172.778 49.501 172.088 49.959 171.719 50.7383H171.609V46.7051H170.42V57ZM179.225 48.209C179.676 48.209 180.045 47.8398 180.045 47.3887C180.045 46.9375 179.676 46.5684 179.225 46.5684C178.773 46.5684 178.404 46.9375 178.404 47.3887C178.404 47.8398 178.773 48.209 179.225 48.209ZM178.623 57H179.812V49.6309H178.623V57ZM185.062 57.1299C186.799 57.1299 187.852 56.1455 188.104 55.1475L188.118 55.0928H186.929L186.901 55.1543C186.703 55.5986 186.088 56.0703 185.09 56.0703C183.777 56.0703 182.937 55.1816 182.902 53.6572H188.207V53.1924C188.207 50.9912 186.99 49.501 184.987 49.501C182.984 49.501 181.686 51.0596 181.686 53.3359V53.3428C181.686 55.6533 182.957 57.1299 185.062 57.1299ZM184.98 50.5605C186.067 50.5605 186.874 51.251 186.997 52.707H182.923C183.053 51.3057 183.887 50.5605 184.98 50.5605ZM190.121 57H191.311V46.7051H190.121V57ZM196.314 57.1299C197.34 57.1299 198.16 56.6445 198.611 55.8242H198.721V57H199.91V46.7051H198.721V50.793H198.611C198.208 50.0068 197.326 49.501 196.314 49.501C194.441 49.501 193.225 50.998 193.225 53.3086V53.3223C193.225 55.6191 194.448 57.1299 196.314 57.1299ZM196.588 56.0771C195.241 56.0771 194.441 55.0381 194.441 53.3223V53.3086C194.441 51.5928 195.241 50.5537 196.588 50.5537C197.928 50.5537 198.748 51.6064 198.748 53.3086V53.3223C198.748 55.0244 197.928 56.0771 196.588 56.0771ZM205.201 57.1299C206.938 57.1299 207.99 56.1455 208.243 55.1475L208.257 55.0928H207.067L207.04 55.1543C206.842 55.5986 206.227 56.0703 205.229 56.0703C203.916 56.0703 203.075 55.1816 203.041 53.6572H208.346V53.1924C208.346 50.9912 207.129 49.501 205.126 49.501C203.123 49.501 201.824 51.0596 201.824 53.3359V53.3428C201.824 55.6533 203.096 57.1299 205.201 57.1299ZM205.119 50.5605C206.206 50.5605 207.013 51.251 207.136 52.707H203.062C203.191 51.3057 204.025 50.5605 205.119 50.5605ZM212.912 57.1299C213.938 57.1299 214.758 56.6445 215.209 55.8242H215.318V57H216.508V46.7051H215.318V50.793H215.209C214.806 50.0068 213.924 49.501 212.912 49.501C211.039 49.501 209.822 50.998 209.822 53.3086V53.3223C209.822 55.6191 211.046 57.1299 212.912 57.1299ZM213.186 56.0771C211.839 56.0771 211.039 55.0381 211.039 53.3223V53.3086C211.039 51.5928 211.839 50.5537 213.186 50.5537C214.525 50.5537 215.346 51.6064 215.346 53.3086V53.3223C215.346 55.0244 214.525 56.0771 213.186 56.0771ZM167.973 74.1299C169.839 74.1299 171.062 72.6191 171.062 70.3223V70.3086C171.062 67.998 169.846 66.501 167.973 66.501C166.961 66.501 166.079 67.0068 165.676 67.793H165.566V63.7051H164.377V74H165.566V72.8242H165.676C166.127 73.6445 166.947 74.1299 167.973 74.1299ZM167.699 73.0771C166.359 73.0771 165.539 72.0244 165.539 70.3223V70.3086C165.539 68.6064 166.359 67.5537 167.699 67.5537C169.046 67.5537 169.846 68.5928 169.846 70.3086V70.3223C169.846 72.0381 169.046 73.0771 167.699 73.0771ZM174.932 74.1299C175.923 74.1299 176.695 73.6992 177.16 72.9131H177.27V74H178.459V68.9551C178.459 67.4238 177.454 66.501 175.656 66.501C174.084 66.501 172.963 67.2803 172.771 68.4355L172.765 68.4766H173.954L173.961 68.4561C174.152 67.8818 174.733 67.5537 175.615 67.5537C176.716 67.5537 177.27 68.0459 177.27 68.9551V69.625L175.157 69.7549C173.441 69.8574 172.471 70.6162 172.471 71.9287V71.9424C172.471 73.2822 173.53 74.1299 174.932 74.1299ZM173.688 71.915V71.9014C173.688 71.1699 174.18 70.7734 175.301 70.7051L177.27 70.582V71.252C177.27 72.3047 176.388 73.0977 175.178 73.0977C174.323 73.0977 173.688 72.6602 173.688 71.915ZM180.701 74H181.891V63.7051H180.701V74ZM186.197 74.1299C187.188 74.1299 187.961 73.6992 188.426 72.9131H188.535V74H189.725V68.9551C189.725 67.4238 188.72 66.501 186.922 66.501C185.35 66.501 184.229 67.2803 184.037 68.4355L184.03 68.4766H185.22L185.227 68.4561C185.418 67.8818 185.999 67.5537 186.881 67.5537C187.981 67.5537 188.535 68.0459 188.535 68.9551V69.625L186.423 69.7549C184.707 69.8574 183.736 70.6162 183.736 71.9287V71.9424C183.736 73.2822 184.796 74.1299 186.197 74.1299ZM184.953 71.915V71.9014C184.953 71.1699 185.445 70.7734 186.566 70.7051L188.535 70.582V71.252C188.535 72.3047 187.653 73.0977 186.443 73.0977C185.589 73.0977 184.953 72.6602 184.953 71.915ZM191.898 74H193.088V69.6387C193.088 68.3467 193.833 67.5537 195.009 67.5537C196.185 67.5537 196.731 68.1895 196.731 69.5156V74H197.921V69.2285C197.921 67.4785 196.998 66.501 195.344 66.501C194.257 66.501 193.566 66.959 193.197 67.7383H193.088V66.6309H191.898V74ZM203.089 74.1299C204.859 74.1299 205.851 73.1797 206.151 71.8467L206.165 71.7715L204.989 71.7783L204.976 71.8193C204.702 72.6396 204.073 73.0771 203.082 73.0771C201.77 73.0771 200.922 71.9902 200.922 70.2949V70.2812C200.922 68.6201 201.756 67.5537 203.082 67.5537C204.142 67.5537 204.798 68.1416 204.982 68.8662L204.989 68.8867H206.172L206.165 68.8457C205.946 67.5332 204.873 66.501 203.082 66.501C201.018 66.501 199.705 67.9912 199.705 70.2812V70.2949C199.705 72.6328 201.024 74.1299 203.089 74.1299ZM210.916 74.1299C212.652 74.1299 213.705 73.1455 213.958 72.1475L213.972 72.0928H212.782L212.755 72.1543C212.557 72.5986 211.941 73.0703 210.943 73.0703C209.631 73.0703 208.79 72.1816 208.756 70.6572H214.061V70.1924C214.061 67.9912 212.844 66.501 210.841 66.501C208.838 66.501 207.539 68.0596 207.539 70.3359V70.3428C207.539 72.6533 208.811 74.1299 210.916 74.1299ZM210.834 67.5605C211.921 67.5605 212.728 68.251 212.851 69.707H208.776C208.906 68.3057 209.74 67.5605 210.834 67.5605Z" fill="black"/>
<g clip-path="url(#clip0_3181_16966)">
<path d="M234.561 69.7142C234.351 69.8511 234.109 69.9238 233.861 69.9238C233.613 69.9238 233.371 69.8511 233.161 69.7142C229.668 67.3883 226 65.0318 226 61.7433V54.0574C226.004 53.9035 226.054 53.7548 226.144 53.6325C226.234 53.5102 226.359 53.4205 226.501 53.3763L233.459 50.9619C233.72 50.8717 234.002 50.8717 234.263 50.9619L241.221 53.3786C241.363 53.4228 241.488 53.5125 241.578 53.6348C241.668 53.7571 241.718 53.9058 241.722 54.0596V61.7433C241.721 65.0318 238.053 67.3883 234.561 69.7142Z" fill="black"/>
<path d="M236.746 57.6998C236.707 56.9431 236.383 56.2328 235.843 55.7228C235.302 55.2127 234.59 54.9442 233.86 54.9755C233.131 54.9445 232.419 55.2132 231.879 55.7232C231.339 56.2331 231.014 56.9433 230.976 57.6998V58.2322H232.171V57.6998C232.194 57.2577 232.385 56.8431 232.701 56.5457C233.017 56.2483 233.434 56.092 233.86 56.1106C234.287 56.0917 234.703 56.2479 235.02 56.5453C235.336 56.8428 235.527 57.2575 235.551 57.6998V58.2322H236.746V57.6998Z" fill="white"/>
<path d="M237.788 59.8135C237.771 59.5222 237.644 59.2495 237.435 59.0549C237.225 58.8603 236.95 58.7597 236.669 58.7749H231.051C230.771 58.76 230.496 58.8608 230.286 59.0553C230.077 59.2499 229.95 59.5224 229.933 59.8135V63.8557C229.939 64.0093 229.992 64.157 230.084 64.277C230.177 64.397 230.304 64.4829 230.447 64.522C232.676 65.1991 235.046 65.1991 237.275 64.522C237.419 64.4843 237.547 64.3987 237.64 64.2784C237.733 64.1582 237.785 64.0097 237.789 63.8557V59.8135H237.788Z" fill="white"/>
<path d="M234.411 61.8885V62.901C234.391 63.0381 234.325 63.1633 234.224 63.2538C234.123 63.3443 233.994 63.3941 233.86 63.3941C233.726 63.3941 233.597 63.3443 233.496 63.2538C233.395 63.1633 233.329 63.0381 233.309 62.901V61.8885C233.163 61.8136 233.04 61.6988 232.953 61.5565C232.866 61.4142 232.819 61.2499 232.815 61.0814C232.835 60.8133 232.956 60.564 233.151 60.3877C233.347 60.2113 233.602 60.122 233.86 60.1392C234.119 60.122 234.374 60.2113 234.57 60.3877C234.765 60.564 234.886 60.8133 234.906 61.0814C234.902 61.2498 234.854 61.414 234.767 61.556C234.68 61.6981 234.556 61.8127 234.411 61.8873V61.8885Z" fill="black"/>
</g>
<path d="M199.293 120.707C199.683 121.098 200.317 121.098 200.707 120.707L207.071 114.343C207.462 113.953 207.462 113.319 207.071 112.929C206.681 112.538 206.047 112.538 205.657 112.929L200 118.586L194.343 112.929C193.953 112.538 193.319 112.538 192.929 112.929C192.538 113.319 192.538 113.953 192.929 114.343L199.293 120.707ZM199 84L199 120L201 120L201 84L199 84Z" fill="#4486AB"/>
<path d="M40.1582 58H44.0068C46.1055 58 47.3496 56.9678 47.3496 55.2383V55.2246C47.3496 53.9258 46.4951 53.0029 45.1484 52.832V52.7227C46.0986 52.5518 46.8506 51.6221 46.8506 50.6035V50.5898C46.8506 49.0859 45.7432 48.1357 43.9316 48.1357H40.1582V58ZM43.6719 49.2227C44.8955 49.2227 45.6064 49.8037 45.6064 50.8018V50.8154C45.6064 51.8545 44.8477 52.3877 43.3574 52.3877H41.3887V49.2227H43.6719ZM43.7061 53.4473C45.2783 53.4473 46.085 54.0283 46.085 55.1631V55.1768C46.085 56.3115 45.3057 56.9131 43.8223 56.9131H41.3887V53.4473H43.7061ZM51.2324 58.1299C52.2236 58.1299 52.9961 57.6992 53.4609 56.9131H53.5703V58H54.7598V52.9551C54.7598 51.4238 53.7549 50.501 51.957 50.501C50.3848 50.501 49.2637 51.2803 49.0723 52.4355L49.0654 52.4766H50.2549L50.2617 52.4561C50.4531 51.8818 51.0342 51.5537 51.916 51.5537C53.0166 51.5537 53.5703 52.0459 53.5703 52.9551V53.625L51.458 53.7549C49.7422 53.8574 48.7715 54.6162 48.7715 55.9287V55.9424C48.7715 57.2822 49.8311 58.1299 51.2324 58.1299ZM49.9883 55.915V55.9014C49.9883 55.1699 50.4805 54.7734 51.6016 54.7051L53.5703 54.582V55.252C53.5703 56.3047 52.6885 57.0977 51.4785 57.0977C50.624 57.0977 49.9883 56.6602 49.9883 55.915ZM57.002 58H58.1914V47.7051H57.002V58ZM62.498 58.1299C63.4893 58.1299 64.2617 57.6992 64.7266 56.9131H64.8359V58H66.0254V52.9551C66.0254 51.4238 65.0205 50.501 63.2227 50.501C61.6504 50.501 60.5293 51.2803 60.3379 52.4355L60.3311 52.4766H61.5205L61.5273 52.4561C61.7188 51.8818 62.2998 51.5537 63.1816 51.5537C64.2822 51.5537 64.8359 52.0459 64.8359 52.9551V53.625L62.7236 53.7549C61.0078 53.8574 60.0371 54.6162 60.0371 55.9287V55.9424C60.0371 57.2822 61.0967 58.1299 62.498 58.1299ZM61.2539 55.915V55.9014C61.2539 55.1699 61.7461 54.7734 62.8672 54.7051L64.8359 54.582V55.252C64.8359 56.3047 63.9541 57.0977 62.7441 57.0977C61.8896 57.0977 61.2539 56.6602 61.2539 55.915ZM68.1992 58H69.3887V53.6387C69.3887 52.3467 70.1338 51.5537 71.3096 51.5537C72.4854 51.5537 73.0322 52.1895 73.0322 53.5156V58H74.2217V53.2285C74.2217 51.4785 73.2988 50.501 71.6445 50.501C70.5576 50.501 69.8672 50.959 69.498 51.7383H69.3887V50.6309H68.1992V58ZM79.3896 58.1299C81.1602 58.1299 82.1514 57.1797 82.4521 55.8467L82.4658 55.7715L81.29 55.7783L81.2764 55.8193C81.0029 56.6396 80.374 57.0771 79.3828 57.0771C78.0703 57.0771 77.2227 55.9902 77.2227 54.2949V54.2812C77.2227 52.6201 78.0566 51.5537 79.3828 51.5537C80.4424 51.5537 81.0986 52.1416 81.2832 52.8662L81.29 52.8867H82.4727L82.4658 52.8457C82.2471 51.5332 81.1738 50.501 79.3828 50.501C77.3184 50.501 76.0059 51.9912 76.0059 54.2812V54.2949C76.0059 56.6328 77.3252 58.1299 79.3896 58.1299ZM87.2168 58.1299C88.9531 58.1299 90.0059 57.1455 90.2588 56.1475L90.2725 56.0928H89.083L89.0557 56.1543C88.8574 56.5986 88.2422 57.0703 87.2441 57.0703C85.9316 57.0703 85.0908 56.1816 85.0566 54.6572H90.3613V54.1924C90.3613 51.9912 89.1445 50.501 87.1416 50.501C85.1387 50.501 83.8398 52.0596 83.8398 54.3359V54.3428C83.8398 56.6533 85.1113 58.1299 87.2168 58.1299ZM87.1348 51.5605C88.2217 51.5605 89.0283 52.251 89.1514 53.707H85.0771C85.207 52.3057 86.041 51.5605 87.1348 51.5605Z" fill="black"/>
<path d="M40.2852 73.0918H40.9531C40.0508 71.9258 39.4297 69.623 39.4297 67.6309C39.4297 65.6562 40.0508 63.3477 40.9531 62.1758H40.2852C39.166 63.6348 38.6445 65.5332 38.6445 67.6309C38.6445 69.7402 39.1719 71.6328 40.2852 73.0918ZM42.7051 71H43.5078V67.8125H45.7051C47.3164 67.8125 48.418 66.7461 48.418 65.1758V65.1641C48.418 63.5938 47.3164 62.5449 45.7051 62.5449H42.7051V71ZM45.5176 63.2598C46.8184 63.2598 47.6035 63.9805 47.6035 65.1699V65.1816C47.6035 66.377 46.8184 67.0977 45.5176 67.0977H43.5078V63.2598H45.5176ZM51.5117 71.1055C52.4434 71.1055 53.1992 70.666 53.5742 69.916H53.6445V71H54.4238V66.6875C54.4238 65.3574 53.5625 64.584 52.0859 64.584C50.7793 64.584 49.8242 65.2285 49.6602 66.2363L49.6543 66.2598H50.4336L50.4395 66.248C50.6035 65.6211 51.207 65.2754 52.0625 65.2754C53.082 65.2754 53.6445 65.7676 53.6445 66.6934V67.2852L51.6758 67.4141C50.2168 67.5137 49.4023 68.1523 49.4023 69.248V69.2598C49.4023 70.3848 50.293 71.1055 51.5117 71.1055ZM50.1934 69.248V69.2363C50.1934 68.5215 50.709 68.1172 51.7812 68.0469L53.6445 67.918V68.6504C53.6445 69.6523 52.7891 70.4258 51.6582 70.4258C50.8086 70.4258 50.1934 69.9688 50.1934 69.248ZM56.6035 73.1797C57.6172 73.1797 58.0977 72.7871 58.5605 71.5508L61.1094 64.6895H60.2891L58.3906 70.1621H58.3086L56.4043 64.6895H55.5723L57.9395 71.041L57.7812 71.5156C57.5234 72.2715 57.166 72.5293 56.5801 72.5293C56.4746 72.5293 56.3516 72.5293 56.2578 72.5117V73.1562C56.3691 73.1738 56.498 73.1797 56.6035 73.1797ZM64.4785 71.1055C65.8555 71.1055 66.916 70.3438 66.916 69.2598V69.248C66.916 68.3398 66.3242 67.8477 65.1055 67.5547L64.2324 67.3496C63.3945 67.1504 63.0078 66.8516 63.0078 66.3359V66.3242C63.0078 65.6973 63.6582 65.2344 64.4844 65.2344C65.3223 65.2344 65.9082 65.6328 66.0488 66.2188H66.8105C66.6641 65.2227 65.7617 64.584 64.4902 64.584C63.2188 64.584 62.2168 65.3398 62.2168 66.3594V66.3652C62.2168 67.25 62.7617 67.7363 63.9336 68.0117L64.8125 68.2227C65.7324 68.4395 66.125 68.7617 66.125 69.3066V69.3184C66.125 69.9746 65.4277 70.4492 64.502 70.4492C63.5879 70.4492 62.9844 70.0449 62.8145 69.418H62.0176C62.1465 70.4492 63.1016 71.1055 64.4785 71.1055ZM72.2129 71H72.9922V65.3398H74.4688V64.6895H72.9922V63.8984C72.9922 63.166 73.3262 62.7676 74.0527 62.7676C74.2344 62.7676 74.4102 62.7793 74.5273 62.7969V62.1699C74.334 62.1348 74.1406 62.1172 73.9121 62.1172C72.8105 62.1172 72.2129 62.709 72.2129 63.8809V64.6895H71.1641V65.3398H72.2129V71ZM78.248 71.1055C79.6426 71.1055 80.5625 70.3438 80.8086 69.4883L80.8262 69.4414H80.0469L80.0234 69.4824C79.8184 69.9746 79.1855 70.4082 78.2656 70.4082C77.0117 70.4082 76.2031 69.5234 76.1797 68.0469H80.9199V67.7188C80.9199 65.8496 79.877 64.584 78.1836 64.584C76.4902 64.584 75.3887 65.8848 75.3887 67.8535V67.8652C75.3887 69.8457 76.4785 71.1055 78.248 71.1055ZM78.1836 65.2754C79.2676 65.2754 80.0469 66.0137 80.1348 67.4141H76.1855C76.2852 66.0488 77.0938 65.2754 78.1836 65.2754ZM85.127 71.1055C86.5215 71.1055 87.4414 70.3438 87.6875 69.4883L87.7051 69.4414H86.9258L86.9023 69.4824C86.6973 69.9746 86.0645 70.4082 85.1445 70.4082C83.8906 70.4082 83.082 69.5234 83.0586 68.0469H87.7988V67.7188C87.7988 65.8496 86.7559 64.584 85.0625 64.584C83.3691 64.584 82.2676 65.8848 82.2676 67.8535V67.8652C82.2676 69.8457 83.3574 71.1055 85.127 71.1055ZM85.0625 65.2754C86.1465 65.2754 86.9258 66.0137 87.0137 67.4141H83.0645C83.1641 66.0488 83.9727 65.2754 85.0625 65.2754ZM89.709 73.0918C90.8223 71.6328 91.3496 69.7402 91.3496 67.6309C91.3496 65.5332 90.8281 63.6348 89.709 62.1758H89.041C89.9434 63.3477 90.5645 65.6562 90.5645 67.6309C90.5645 69.623 89.9434 71.9258 89.041 73.0918H89.709Z" fill="black"/>
<rect x="0.5" y="120.5" width="265" height="29" rx="4.5" fill="white" stroke="#4486AB"/>
<path d="M17.6232 142.824C17.4366 142.939 17.2205 143 17 143C16.7795 143 16.5634 142.939 16.3768 142.824C13.2664 140.868 10 138.887 10 136.122V129.66C10.0033 129.53 10.0482 129.405 10.1283 129.302C10.2085 129.2 10.3198 129.124 10.4463 129.087L16.6419 127.057C16.8744 126.981 17.1256 126.981 17.3581 127.057L23.5537 129.089C23.6802 129.126 23.7915 129.201 23.8717 129.304C23.9518 129.407 23.9967 129.532 24 129.661V136.122C23.999 138.887 20.7327 140.868 17.6232 142.824Z" fill="black"/>
<g clip-path="url(#clip1_3181_16966)">
<path d="M20.3345 130.549L12.1885 133.692C12.105 133.724 12.0327 133.779 11.9801 133.85C11.9275 133.921 11.8969 134.005 11.8918 134.093C11.8868 134.18 11.9076 134.268 11.9518 134.344C11.9959 134.42 12.0615 134.483 12.1409 134.524L14.4163 135.74C14.4561 135.761 14.5012 135.772 14.5466 135.77C14.5921 135.768 14.6362 135.755 14.6743 135.73L16.6917 134.412C16.7327 134.384 16.7824 134.371 16.8322 134.376C16.8819 134.38 16.9284 134.401 16.9637 134.436C16.999 134.47 17.0207 134.516 17.0252 134.565C17.0296 134.613 17.0164 134.662 16.9879 134.702L15.6403 136.675C15.6153 136.712 15.6012 136.755 15.5995 136.8C15.5979 136.844 15.6087 136.889 15.6308 136.928L16.8737 139.153C16.9163 139.23 16.9804 139.293 17.0584 139.336C17.1364 139.378 17.2251 139.398 17.3142 139.393C17.4034 139.388 17.4893 139.359 17.5619 139.308C17.6346 139.257 17.691 139.188 17.7246 139.107L20.9368 131.138C20.9715 131.056 20.9805 130.965 20.9627 130.878C20.9448 130.791 20.9009 130.711 20.8365 130.647C20.7721 130.584 20.6901 130.542 20.6007 130.524C20.5114 130.506 20.4187 130.515 20.3345 130.549Z" fill="white"/>
</g>
<path d="M212.189 140.199C213.906 140.199 215.131 139.01 215.131 137.305V137.293C215.131 135.658 213.988 134.469 212.4 134.469C211.633 134.469 210.971 134.779 210.596 135.348H210.502L210.789 132.488H214.662V131.545H209.957L209.512 136.402H210.426C210.531 136.203 210.666 136.039 210.812 135.898C211.176 135.553 211.656 135.383 212.219 135.383C213.314 135.383 214.1 136.186 214.1 137.311V137.322C214.1 138.465 213.326 139.268 212.201 139.268C211.211 139.268 210.479 138.623 210.379 137.814L210.373 137.768H209.359L209.365 137.832C209.488 139.186 210.613 140.199 212.189 140.199ZM219.66 140.199C221.529 140.199 222.654 138.494 222.654 135.775V135.764C222.654 133.045 221.529 131.346 219.66 131.346C217.791 131.346 216.678 133.045 216.678 135.764V135.775C216.678 138.494 217.791 140.199 219.66 140.199ZM219.66 139.279C218.447 139.279 217.738 137.932 217.738 135.775V135.764C217.738 133.607 218.447 132.271 219.66 132.271C220.873 132.271 221.594 133.607 221.594 135.764V135.775C221.594 137.932 220.873 139.279 219.66 139.279ZM231.303 140.199C233.102 140.199 234.438 139.197 234.719 137.65V137.639H233.652L233.641 137.65C233.377 138.623 232.48 139.227 231.303 139.227C229.674 139.227 228.654 137.896 228.654 135.781V135.77C228.654 133.654 229.674 132.318 231.297 132.318C232.463 132.318 233.365 133.004 233.646 134.088L233.652 134.1H234.713L234.719 134.088C234.467 132.465 233.078 131.346 231.297 131.346C229 131.346 227.57 133.045 227.57 135.77V135.781C227.57 138.5 229.006 140.199 231.303 140.199ZM239.893 140.199C241.691 140.199 243.027 139.197 243.309 137.65V137.639H242.242L242.23 137.65C241.967 138.623 241.07 139.227 239.893 139.227C238.264 139.227 237.244 137.896 237.244 135.781V135.77C237.244 133.654 238.264 132.318 239.887 132.318C241.053 132.318 241.955 133.004 242.236 134.088L242.242 134.1H243.303L243.309 134.088C243.057 132.465 241.668 131.346 239.887 131.346C237.59 131.346 236.16 133.045 236.16 135.77V135.781C236.16 138.5 237.596 140.199 239.893 140.199ZM245.078 140H247.979C250.492 140 251.969 138.436 251.969 135.775V135.764C251.969 133.109 250.486 131.545 247.979 131.545H245.078V140ZM246.133 139.051V132.494H247.908C249.783 132.494 250.891 133.713 250.891 135.775V135.787C250.891 137.844 249.795 139.051 247.908 139.051H246.133ZM255.836 140.111C257.271 140.111 258.367 139.332 258.367 138.207V138.195C258.367 137.293 257.793 136.777 256.604 136.49L255.631 136.256C254.887 136.074 254.57 135.805 254.57 135.377V135.365C254.57 134.809 255.121 134.422 255.871 134.422C256.633 134.422 257.125 134.768 257.26 135.266H258.262C258.121 134.234 257.201 133.572 255.877 133.572C254.535 133.572 253.527 134.363 253.527 135.412V135.418C253.527 136.326 254.061 136.842 255.244 137.123L256.223 137.357C257.002 137.545 257.324 137.844 257.324 138.271V138.283C257.324 138.857 256.721 139.262 255.871 139.262C255.062 139.262 254.559 138.916 254.389 138.389H253.346C253.463 139.432 254.43 140.111 255.836 140.111Z" fill="black"/>
<path d="M34.9785 140.211C37.0059 140.211 38.2773 139.18 38.2773 137.533V137.527C38.2773 136.25 37.5332 135.535 35.752 135.16L34.8438 134.967C33.7891 134.744 33.3613 134.369 33.3613 133.771V133.766C33.3613 133.045 34.0293 132.605 34.9668 132.605C35.9336 132.6 36.5605 133.068 36.666 133.725L36.6777 133.795H38.125L38.1191 133.719C38.0137 132.359 36.8477 131.334 34.9727 131.334C33.1445 131.334 31.8438 132.354 31.8438 133.865V133.871C31.8438 135.131 32.5938 135.939 34.3223 136.303L35.2305 136.49C36.3203 136.725 36.7598 137.094 36.7598 137.703V137.709C36.7598 138.436 36.0449 138.939 35.0254 138.939C33.9531 138.939 33.1973 138.471 33.127 137.762L33.1211 137.703H31.6562L31.6621 137.785C31.7676 139.244 33.0156 140.211 34.9785 140.211ZM39.8828 140H41.3418V136.268C41.3418 135.307 41.8809 134.697 42.748 134.697C43.6328 134.697 44.0371 135.201 44.0371 136.197V140H45.4961V135.857C45.4961 134.334 44.7168 133.473 43.2871 133.473C42.3613 133.473 41.7461 133.889 41.4414 134.574H41.3418V131.117H39.8828V140ZM47.9688 132.523C48.4434 132.523 48.8359 132.143 48.8359 131.662C48.8359 131.188 48.4434 130.801 47.9688 130.801C47.4883 130.801 47.0957 131.188 47.0957 131.662C47.0957 132.143 47.4883 132.523 47.9688 132.523ZM47.2363 140H48.6953V133.596H47.2363V140ZM53.2305 140.129C54.9707 140.129 55.8262 139.127 56.0312 138.301L56.0488 138.248H54.6602L54.6426 138.289C54.502 138.582 54.0508 138.98 53.2598 138.98C52.2695 138.98 51.6484 138.312 51.6309 137.164H56.1074V136.684C56.1074 134.75 54.9824 133.473 53.1602 133.473C51.3379 133.473 50.1719 134.791 50.1719 136.807V136.812C50.1719 138.852 51.3262 140.129 53.2305 140.129ZM53.1777 134.615C53.9922 134.615 54.584 135.137 54.6836 136.186H51.6426C51.7539 135.166 52.3633 134.615 53.1777 134.615ZM57.625 140H59.084V131.117H57.625V140ZM63.2383 140.105C64.1406 140.105 64.832 139.695 65.1836 138.998H65.2832V140H66.748V131.117H65.2832V134.615H65.1836C64.8496 133.924 64.1172 133.49 63.2383 133.49C61.6152 133.49 60.6133 134.756 60.6133 136.795V136.807C60.6133 138.834 61.6328 140.105 63.2383 140.105ZM63.6953 138.875C62.6992 138.875 62.0957 138.096 62.0957 136.807V136.795C62.0957 135.506 62.7051 134.721 63.6953 134.721C64.6855 134.721 65.3066 135.512 65.3066 136.795V136.807C65.3066 138.09 64.6914 138.875 63.6953 138.875ZM71.3242 140.129C73.0645 140.129 73.9199 139.127 74.125 138.301L74.1426 138.248H72.7539L72.7363 138.289C72.5957 138.582 72.1445 138.98 71.3535 138.98C70.3633 138.98 69.7422 138.312 69.7246 137.164H74.2012V136.684C74.2012 134.75 73.0762 133.473 71.2539 133.473C69.4316 133.473 68.2656 134.791 68.2656 136.807V136.812C68.2656 138.852 69.4199 140.129 71.3242 140.129ZM71.2715 134.615C72.0859 134.615 72.6777 135.137 72.7773 136.186H69.7363C69.8477 135.166 70.457 134.615 71.2715 134.615ZM77.9688 140.105C78.8711 140.105 79.5625 139.695 79.9141 138.998H80.0137V140H81.4785V131.117H80.0137V134.615H79.9141C79.5801 133.924 78.8477 133.49 77.9688 133.49C76.3457 133.49 75.3438 134.756 75.3438 136.795V136.807C75.3438 138.834 76.3633 140.105 77.9688 140.105ZM78.4258 138.875C77.4297 138.875 76.8262 138.096 76.8262 136.807V136.795C76.8262 135.506 77.4355 134.721 78.4258 134.721C79.416 134.721 80.0371 135.512 80.0371 136.795V136.807C80.0371 138.09 79.4219 138.875 78.4258 138.875ZM89.0312 140.029C89.3125 140.029 89.582 140.006 89.793 139.965V138.84C89.6172 138.857 89.5059 138.863 89.3008 138.863C88.6914 138.863 88.4395 138.594 88.4395 137.955V134.727H89.793V133.596H88.4395V132.025H86.957V133.596H85.9609V134.727H86.957V138.301C86.957 139.537 87.5605 140.029 89.0312 140.029ZM91.2461 140H92.7051V136.279C92.7051 135.365 93.3438 134.785 94.3164 134.785C94.5684 134.785 94.8086 134.82 95.043 134.867V133.561C94.9023 133.52 94.6738 133.49 94.4512 133.49C93.6074 133.49 93.0215 133.895 92.8047 134.58H92.7051V133.596H91.2461V140ZM97.9023 140.105C98.7461 140.105 99.4258 139.742 99.7773 139.121H99.877V140H101.318V135.623C101.318 134.27 100.393 133.473 98.7461 133.473C97.2227 133.473 96.1914 134.188 96.0508 135.266L96.0449 135.318H97.4219L97.4277 135.295C97.5742 134.873 98.0078 134.633 98.6758 134.633C99.4609 134.633 99.877 134.984 99.877 135.623V136.174L98.2305 136.273C96.6719 136.367 95.7988 137.035 95.7988 138.178V138.189C95.7988 139.355 96.6836 140.105 97.9023 140.105ZM97.2402 138.119V138.107C97.2402 137.58 97.6211 137.281 98.4355 137.229L99.877 137.135V137.65C99.877 138.412 99.2266 138.986 98.3477 138.986C97.7031 138.986 97.2402 138.664 97.2402 138.119ZM103.07 140H104.529V136.268C104.529 135.307 105.068 134.697 105.936 134.697C106.82 134.697 107.225 135.201 107.225 136.197V140H108.684V135.857C108.684 134.334 107.904 133.473 106.475 133.473C105.549 133.473 104.934 133.889 104.629 134.574H104.529V133.596H103.07V140ZM112.826 140.129C114.402 140.129 115.545 139.314 115.545 138.096V138.084C115.545 137.152 114.953 136.619 113.699 136.338L112.662 136.109C111.971 135.951 111.701 135.723 111.701 135.348V135.342C111.701 134.861 112.17 134.545 112.82 134.545C113.506 134.545 113.928 134.873 114.033 135.277L114.039 135.295H115.41V135.283C115.316 134.246 114.385 133.473 112.826 133.473C111.314 133.473 110.26 134.27 110.26 135.424V135.43C110.26 136.373 110.84 136.947 112.059 137.217L113.096 137.451C113.799 137.609 114.08 137.855 114.08 138.23V138.242C114.08 138.723 113.576 139.051 112.85 139.051C112.123 139.051 111.695 138.74 111.543 138.295L111.537 138.283H110.09V138.295C110.213 139.379 111.197 140.129 112.826 140.129ZM117.484 140H118.943V134.727H120.309V133.596H118.92V133.045C118.92 132.436 119.184 132.107 119.869 132.107C120.074 132.107 120.256 132.119 120.367 132.137V131.117C120.133 131.076 119.869 131.059 119.559 131.059C118.135 131.059 117.484 131.686 117.484 132.963V133.596H116.436V134.727H117.484V140ZM124.223 140.129C125.963 140.129 126.818 139.127 127.023 138.301L127.041 138.248H125.652L125.635 138.289C125.494 138.582 125.043 138.98 124.252 138.98C123.262 138.98 122.641 138.312 122.623 137.164H127.1V136.684C127.1 134.75 125.975 133.473 124.152 133.473C122.33 133.473 121.164 134.791 121.164 136.807V136.812C121.164 138.852 122.318 140.129 124.223 140.129ZM124.17 134.615C124.984 134.615 125.576 135.137 125.676 136.186H122.635C122.746 135.166 123.355 134.615 124.17 134.615ZM128.559 140H130.018V136.279C130.018 135.365 130.656 134.785 131.629 134.785C131.881 134.785 132.121 134.82 132.355 134.867V133.561C132.215 133.52 131.986 133.49 131.764 133.49C130.92 133.49 130.334 133.895 130.117 134.58H130.018V133.596H128.559V140ZM134.635 135.764C135.174 135.764 135.566 135.359 135.566 134.844C135.566 134.322 135.174 133.918 134.635 133.918C134.102 133.918 133.703 134.322 133.703 134.844C133.703 135.359 134.102 135.764 134.635 135.764ZM134.635 140.117C135.174 140.117 135.566 139.707 135.566 139.191C135.566 138.67 135.174 138.266 134.635 138.266C134.102 138.266 133.703 138.67 133.703 139.191C133.703 139.707 134.102 140.117 134.635 140.117Z" fill="black"/>
<rect x="0.5" y="164.5" width="265" height="97" rx="9.5" fill="#FBFBF9" stroke="#979797"/>
<rect x="13.5" y="200.5" width="104" height="47" rx="9.5" fill="white" stroke="#4486AB"/>
<path d="M14.2578 187.447H15.4883V183.543H17.915L20.0273 187.447H21.4697L19.1865 183.352C20.4238 182.962 21.1689 181.896 21.1689 180.529V180.515C21.1689 178.745 19.9248 177.583 18.0244 177.583H14.2578V187.447ZM15.4883 182.45V178.676H17.8604C19.1318 178.676 19.8975 179.38 19.8975 180.556V180.57C19.8975 181.773 19.1797 182.45 17.915 182.45H15.4883ZM26.0566 187.577C27.793 187.577 28.8457 186.592 29.0986 185.594L29.1123 185.54H27.9229L27.8955 185.601C27.6973 186.045 27.082 186.517 26.084 186.517C24.7715 186.517 23.9307 185.628 23.8965 184.104H29.2012V183.639C29.2012 181.438 27.9844 179.948 25.9814 179.948C23.9785 179.948 22.6797 181.506 22.6797 183.783V183.79C22.6797 186.1 23.9512 187.577 26.0566 187.577ZM25.9746 181.007C27.0615 181.007 27.8682 181.698 27.9912 183.154H23.917C24.0469 181.752 24.8809 181.007 25.9746 181.007ZM34.0615 187.577C35.832 187.577 36.8232 186.626 37.124 185.293L37.1377 185.218L35.9619 185.225L35.9482 185.266C35.6748 186.086 35.0459 186.524 34.0547 186.524C32.7422 186.524 31.8945 185.437 31.8945 183.742V183.728C31.8945 182.067 32.7285 181 34.0547 181C35.1143 181 35.7705 181.588 35.9551 182.313L35.9619 182.333H37.1445L37.1377 182.292C36.9189 180.98 35.8457 179.948 34.0547 179.948C31.9902 179.948 30.6777 181.438 30.6777 183.728V183.742C30.6777 186.08 31.9971 187.577 34.0615 187.577ZM39.5098 178.656C39.9609 178.656 40.3301 178.287 40.3301 177.835C40.3301 177.384 39.9609 177.015 39.5098 177.015C39.0586 177.015 38.6895 177.384 38.6895 177.835C38.6895 178.287 39.0586 178.656 39.5098 178.656ZM38.9082 187.447H40.0977V180.078H38.9082V187.447ZM42.3398 189.908H43.5293V186.285H43.6387C44.042 187.071 44.9238 187.577 45.9355 187.577C47.8086 187.577 49.0254 186.08 49.0254 183.769V183.755C49.0254 181.458 47.8018 179.948 45.9355 179.948C44.9102 179.948 44.0898 180.433 43.6387 181.253H43.5293V180.078H42.3398V189.908ZM45.6621 186.524C44.3223 186.524 43.502 185.471 43.502 183.769V183.755C43.502 182.053 44.3223 181 45.6621 181C47.0088 181 47.8086 182.04 47.8086 183.755V183.769C47.8086 185.485 47.0088 186.524 45.6621 186.524ZM51.5137 178.656C51.9648 178.656 52.334 178.287 52.334 177.835C52.334 177.384 51.9648 177.015 51.5137 177.015C51.0625 177.015 50.6934 177.384 50.6934 177.835C50.6934 178.287 51.0625 178.656 51.5137 178.656ZM50.9121 187.447H52.1016V180.078H50.9121V187.447ZM57.3516 187.577C59.0879 187.577 60.1406 186.592 60.3936 185.594L60.4072 185.54H59.2178L59.1904 185.601C58.9922 186.045 58.377 186.517 57.3789 186.517C56.0664 186.517 55.2256 185.628 55.1914 184.104H60.4961V183.639C60.4961 181.438 59.2793 179.948 57.2764 179.948C55.2734 179.948 53.9746 181.506 53.9746 183.783V183.79C53.9746 186.1 55.2461 187.577 57.3516 187.577ZM57.2695 181.007C58.3564 181.007 59.1631 181.698 59.2861 183.154H55.2119C55.3418 181.752 56.1758 181.007 57.2695 181.007ZM62.3418 187.447H63.5312V183.085C63.5312 181.793 64.2764 181 65.4521 181C66.6279 181 67.1748 181.636 67.1748 182.962V187.447H68.3643V182.675C68.3643 180.925 67.4414 179.948 65.7871 179.948C64.7002 179.948 64.0098 180.406 63.6406 181.185H63.5312V180.078H62.3418V187.447ZM73.1357 187.501C73.3682 187.501 73.5938 187.474 73.8262 187.433V186.421C73.6074 186.442 73.4912 186.449 73.2793 186.449C72.5137 186.449 72.2129 186.1 72.2129 185.232V181.062H73.8262V180.078H72.2129V178.17H70.9824V180.078H69.8203V181.062H70.9824V185.533C70.9824 186.941 71.6182 187.501 73.1357 187.501ZM81.5645 187.577C82.5557 187.577 83.3281 187.146 83.793 186.36H83.9023V187.447H85.0918V182.402C85.0918 180.871 84.0869 179.948 82.2891 179.948C80.7168 179.948 79.5957 180.727 79.4043 181.882L79.3975 181.923H80.5869L80.5938 181.903C80.7852 181.329 81.3662 181 82.248 181C83.3486 181 83.9023 181.493 83.9023 182.402V183.072L81.79 183.202C80.0742 183.304 79.1035 184.063 79.1035 185.375V185.389C79.1035 186.729 80.1631 187.577 81.5645 187.577ZM80.3203 185.362V185.348C80.3203 184.617 80.8125 184.22 81.9336 184.152L83.9023 184.029V184.699C83.9023 185.751 83.0205 186.544 81.8105 186.544C80.9561 186.544 80.3203 186.107 80.3203 185.362ZM90.2803 187.577C92.0508 187.577 93.042 186.626 93.3428 185.293L93.3564 185.218L92.1807 185.225L92.167 185.266C91.8936 186.086 91.2646 186.524 90.2734 186.524C88.9609 186.524 88.1133 185.437 88.1133 183.742V183.728C88.1133 182.067 88.9473 181 90.2734 181C91.333 181 91.9893 181.588 92.1738 182.313L92.1807 182.333H93.3633L93.3564 182.292C93.1377 180.98 92.0645 179.948 90.2734 179.948C88.209 179.948 86.8965 181.438 86.8965 183.728V183.742C86.8965 186.08 88.2158 187.577 90.2803 187.577ZM98.1143 187.577C99.8848 187.577 100.876 186.626 101.177 185.293L101.19 185.218L100.015 185.225L100.001 185.266C99.7275 186.086 99.0986 186.524 98.1074 186.524C96.7949 186.524 95.9473 185.437 95.9473 183.742V183.728C95.9473 182.067 96.7812 181 98.1074 181C99.167 181 99.8232 181.588 100.008 182.313L100.015 182.333H101.197L101.19 182.292C100.972 180.98 99.8984 179.948 98.1074 179.948C96.043 179.948 94.7305 181.438 94.7305 183.728V183.742C94.7305 186.08 96.0498 187.577 98.1143 187.577ZM105.962 187.577C108.061 187.577 109.359 186.127 109.359 183.769V183.755C109.359 181.39 108.061 179.948 105.962 179.948C103.863 179.948 102.564 181.39 102.564 183.755V183.769C102.564 186.127 103.863 187.577 105.962 187.577ZM105.962 186.524C104.567 186.524 103.781 185.505 103.781 183.769V183.755C103.781 182.012 104.567 181 105.962 181C107.356 181 108.143 182.012 108.143 183.755V183.769C108.143 185.505 107.356 186.524 105.962 186.524ZM113.673 187.577C114.753 187.577 115.498 187.132 115.86 186.346H115.97V187.447H117.159V180.078H115.97V184.439C115.97 185.731 115.279 186.524 113.98 186.524C112.805 186.524 112.326 185.888 112.326 184.562V180.078H111.137V184.849C111.137 186.592 111.998 187.577 113.673 187.577ZM119.381 187.447H120.57V183.085C120.57 181.793 121.315 181 122.491 181C123.667 181 124.214 181.636 124.214 182.962V187.447H125.403V182.675C125.403 180.925 124.48 179.948 122.826 179.948C121.739 179.948 121.049 180.406 120.68 181.185H120.57V180.078H119.381V187.447ZM130.175 187.501C130.407 187.501 130.633 187.474 130.865 187.433V186.421C130.646 186.442 130.53 186.449 130.318 186.449C129.553 186.449 129.252 186.1 129.252 185.232V181.062H130.865V180.078H129.252V178.17H128.021V180.078H126.859V181.062H128.021V185.533C128.021 186.941 128.657 187.501 130.175 187.501Z" fill="black"/>
<rect x="148.5" y="200.5" width="104" height="47" rx="9.5" fill="white" stroke="#4486AB"/>
<path d="M164.808 221.232C167.009 221.232 168.451 220.084 168.451 218.238V218.231C168.451 216.81 167.638 215.982 165.58 215.524L164.486 215.278C163.146 214.984 162.606 214.451 162.606 213.665V213.658C162.606 212.626 163.557 212.045 164.787 212.038C166.072 212.031 166.893 212.674 167.029 213.542L167.043 213.631H168.273L168.267 213.535C168.164 212.065 166.79 210.903 164.821 210.903C162.784 210.903 161.355 212.059 161.349 213.692V213.699C161.349 215.128 162.203 216.037 164.179 216.475L165.272 216.714C166.626 217.015 167.193 217.575 167.193 218.396V218.402C167.193 219.407 166.216 220.098 164.876 220.098C163.454 220.098 162.429 219.476 162.34 218.491L162.333 218.416H161.103L161.109 218.491C161.253 220.098 162.647 221.232 164.808 221.232ZM170.42 221H171.609V216.639C171.609 215.347 172.354 214.554 173.53 214.554C174.706 214.554 175.253 215.189 175.253 216.516V221H176.442V216.229C176.442 214.479 175.52 213.501 173.865 213.501C172.778 213.501 172.088 213.959 171.719 214.738H171.609V210.705H170.42V221ZM179.225 212.209C179.676 212.209 180.045 211.84 180.045 211.389C180.045 210.938 179.676 210.568 179.225 210.568C178.773 210.568 178.404 210.938 178.404 211.389C178.404 211.84 178.773 212.209 179.225 212.209ZM178.623 221H179.812V213.631H178.623V221ZM185.062 221.13C186.799 221.13 187.852 220.146 188.104 219.147L188.118 219.093H186.929L186.901 219.154C186.703 219.599 186.088 220.07 185.09 220.07C183.777 220.07 182.937 219.182 182.902 217.657H188.207V217.192C188.207 214.991 186.99 213.501 184.987 213.501C182.984 213.501 181.686 215.06 181.686 217.336V217.343C181.686 219.653 182.957 221.13 185.062 221.13ZM184.98 214.561C186.067 214.561 186.874 215.251 186.997 216.707H182.923C183.053 215.306 183.887 214.561 184.98 214.561ZM190.121 221H191.311V210.705H190.121V221ZM196.314 221.13C197.34 221.13 198.16 220.645 198.611 219.824H198.721V221H199.91V210.705H198.721V214.793H198.611C198.208 214.007 197.326 213.501 196.314 213.501C194.441 213.501 193.225 214.998 193.225 217.309V217.322C193.225 219.619 194.448 221.13 196.314 221.13ZM196.588 220.077C195.241 220.077 194.441 219.038 194.441 217.322V217.309C194.441 215.593 195.241 214.554 196.588 214.554C197.928 214.554 198.748 215.606 198.748 217.309V217.322C198.748 219.024 197.928 220.077 196.588 220.077ZM205.201 221.13C206.938 221.13 207.99 220.146 208.243 219.147L208.257 219.093H207.067L207.04 219.154C206.842 219.599 206.227 220.07 205.229 220.07C203.916 220.07 203.075 219.182 203.041 217.657H208.346V217.192C208.346 214.991 207.129 213.501 205.126 213.501C203.123 213.501 201.824 215.06 201.824 217.336V217.343C201.824 219.653 203.096 221.13 205.201 221.13ZM205.119 214.561C206.206 214.561 207.013 215.251 207.136 216.707H203.062C203.191 215.306 204.025 214.561 205.119 214.561ZM212.912 221.13C213.938 221.13 214.758 220.645 215.209 219.824H215.318V221H216.508V210.705H215.318V214.793H215.209C214.806 214.007 213.924 213.501 212.912 213.501C211.039 213.501 209.822 214.998 209.822 217.309V217.322C209.822 219.619 211.046 221.13 212.912 221.13ZM213.186 220.077C211.839 220.077 211.039 219.038 211.039 217.322V217.309C211.039 215.593 211.839 214.554 213.186 214.554C214.525 214.554 215.346 215.606 215.346 217.309V217.322C215.346 219.024 214.525 220.077 213.186 220.077ZM167.973 238.13C169.839 238.13 171.062 236.619 171.062 234.322V234.309C171.062 231.998 169.846 230.501 167.973 230.501C166.961 230.501 166.079 231.007 165.676 231.793H165.566V227.705H164.377V238H165.566V236.824H165.676C166.127 237.645 166.947 238.13 167.973 238.13ZM167.699 237.077C166.359 237.077 165.539 236.024 165.539 234.322V234.309C165.539 232.606 166.359 231.554 167.699 231.554C169.046 231.554 169.846 232.593 169.846 234.309V234.322C169.846 236.038 169.046 237.077 167.699 237.077ZM174.932 238.13C175.923 238.13 176.695 237.699 177.16 236.913H177.27V238H178.459V232.955C178.459 231.424 177.454 230.501 175.656 230.501C174.084 230.501 172.963 231.28 172.771 232.436L172.765 232.477H173.954L173.961 232.456C174.152 231.882 174.733 231.554 175.615 231.554C176.716 231.554 177.27 232.046 177.27 232.955V233.625L175.157 233.755C173.441 233.857 172.471 234.616 172.471 235.929V235.942C172.471 237.282 173.53 238.13 174.932 238.13ZM173.688 235.915V235.901C173.688 235.17 174.18 234.773 175.301 234.705L177.27 234.582V235.252C177.27 236.305 176.388 237.098 175.178 237.098C174.323 237.098 173.688 236.66 173.688 235.915ZM180.701 238H181.891V227.705H180.701V238ZM186.197 238.13C187.188 238.13 187.961 237.699 188.426 236.913H188.535V238H189.725V232.955C189.725 231.424 188.72 230.501 186.922 230.501C185.35 230.501 184.229 231.28 184.037 232.436L184.03 232.477H185.22L185.227 232.456C185.418 231.882 185.999 231.554 186.881 231.554C187.981 231.554 188.535 232.046 188.535 232.955V233.625L186.423 233.755C184.707 233.857 183.736 234.616 183.736 235.929V235.942C183.736 237.282 184.796 238.13 186.197 238.13ZM184.953 235.915V235.901C184.953 235.17 185.445 234.773 186.566 234.705L188.535 234.582V235.252C188.535 236.305 187.653 237.098 186.443 237.098C185.589 237.098 184.953 236.66 184.953 235.915ZM191.898 238H193.088V233.639C193.088 232.347 193.833 231.554 195.009 231.554C196.185 231.554 196.731 232.189 196.731 233.516V238H197.921V233.229C197.921 231.479 196.998 230.501 195.344 230.501C194.257 230.501 193.566 230.959 193.197 231.738H193.088V230.631H191.898V238ZM203.089 238.13C204.859 238.13 205.851 237.18 206.151 235.847L206.165 235.771L204.989 235.778L204.976 235.819C204.702 236.64 204.073 237.077 203.082 237.077C201.77 237.077 200.922 235.99 200.922 234.295V234.281C200.922 232.62 201.756 231.554 203.082 231.554C204.142 231.554 204.798 232.142 204.982 232.866L204.989 232.887H206.172L206.165 232.846C205.946 231.533 204.873 230.501 203.082 230.501C201.018 230.501 199.705 231.991 199.705 234.281V234.295C199.705 236.633 201.024 238.13 203.089 238.13ZM210.916 238.13C212.652 238.13 213.705 237.146 213.958 236.147L213.972 236.093H212.782L212.755 236.154C212.557 236.599 211.941 237.07 210.943 237.07C209.631 237.07 208.79 236.182 208.756 234.657H214.061V234.192C214.061 231.991 212.844 230.501 210.841 230.501C208.838 230.501 207.539 232.06 207.539 234.336V234.343C207.539 236.653 208.811 238.13 210.916 238.13ZM210.834 231.561C211.921 231.561 212.728 232.251 212.851 233.707H208.776C208.906 232.306 209.74 231.561 210.834 231.561Z" fill="black"/>
<g clip-path="url(#clip2_3181_16966)">
<path d="M234.561 233.714C234.351 233.851 234.109 233.924 233.861 233.924C233.613 233.924 233.371 233.851 233.161 233.714C229.668 231.388 226 229.032 226 225.743V218.057C226.004 217.904 226.054 217.755 226.144 217.633C226.234 217.51 226.359 217.421 226.501 217.376L233.459 214.962C233.72 214.872 234.002 214.872 234.263 214.962L241.221 217.379C241.363 217.423 241.488 217.512 241.578 217.635C241.668 217.757 241.718 217.906 241.722 218.06V225.743C241.721 229.032 238.053 231.388 234.561 233.714Z" fill="black"/>
<path d="M236.746 221.7C236.707 220.943 236.383 220.233 235.843 219.723C235.302 219.213 234.59 218.944 233.86 218.976C233.131 218.945 232.419 219.213 231.879 219.723C231.339 220.233 231.014 220.943 230.976 221.7V222.232H232.171V221.7C232.194 221.258 232.385 220.843 232.701 220.546C233.017 220.248 233.434 220.092 233.86 220.111C234.287 220.092 234.703 220.248 235.02 220.545C235.336 220.843 235.527 221.258 235.551 221.7V222.232H236.746V221.7Z" fill="white"/>
<path d="M237.788 223.813C237.771 223.522 237.644 223.249 237.435 223.055C237.225 222.86 236.95 222.76 236.669 222.775H231.051C230.771 222.76 230.496 222.861 230.286 223.055C230.077 223.25 229.95 223.522 229.933 223.813V227.856C229.939 228.009 229.992 228.157 230.084 228.277C230.177 228.397 230.304 228.483 230.447 228.522C232.676 229.199 235.046 229.199 237.275 228.522C237.419 228.484 237.547 228.399 237.64 228.278C237.733 228.158 237.785 228.01 237.789 227.856V223.813H237.788Z" fill="white"/>
<path d="M234.411 225.888V226.901C234.391 227.038 234.325 227.163 234.224 227.254C234.123 227.344 233.994 227.394 233.86 227.394C233.726 227.394 233.597 227.344 233.496 227.254C233.395 227.163 233.329 227.038 233.309 226.901V225.888C233.163 225.814 233.04 225.699 232.953 225.556C232.866 225.414 232.819 225.25 232.815 225.081C232.835 224.813 232.956 224.564 233.151 224.388C233.347 224.211 233.602 224.122 233.86 224.139C234.119 224.122 234.374 224.211 234.57 224.388C234.765 224.564 234.886 224.813 234.906 225.081C234.902 225.25 234.854 225.414 234.767 225.556C234.68 225.698 234.556 225.813 234.411 225.887V225.888Z" fill="black"/>
</g>
<path d="M40.1582 228H44.0068C46.1055 228 47.3496 226.968 47.3496 225.238V225.225C47.3496 223.926 46.4951 223.003 45.1484 222.832V222.723C46.0986 222.552 46.8506 221.622 46.8506 220.604V220.59C46.8506 219.086 45.7432 218.136 43.9316 218.136H40.1582V228ZM43.6719 219.223C44.8955 219.223 45.6064 219.804 45.6064 220.802V220.815C45.6064 221.854 44.8477 222.388 43.3574 222.388H41.3887V219.223H43.6719ZM43.7061 223.447C45.2783 223.447 46.085 224.028 46.085 225.163V225.177C46.085 226.312 45.3057 226.913 43.8223 226.913H41.3887V223.447H43.7061ZM51.2324 228.13C52.2236 228.13 52.9961 227.699 53.4609 226.913H53.5703V228H54.7598V222.955C54.7598 221.424 53.7549 220.501 51.957 220.501C50.3848 220.501 49.2637 221.28 49.0723 222.436L49.0654 222.477H50.2549L50.2617 222.456C50.4531 221.882 51.0342 221.554 51.916 221.554C53.0166 221.554 53.5703 222.046 53.5703 222.955V223.625L51.458 223.755C49.7422 223.857 48.7715 224.616 48.7715 225.929V225.942C48.7715 227.282 49.8311 228.13 51.2324 228.13ZM49.9883 225.915V225.901C49.9883 225.17 50.4805 224.773 51.6016 224.705L53.5703 224.582V225.252C53.5703 226.305 52.6885 227.098 51.4785 227.098C50.624 227.098 49.9883 226.66 49.9883 225.915ZM57.002 228H58.1914V217.705H57.002V228ZM62.498 228.13C63.4893 228.13 64.2617 227.699 64.7266 226.913H64.8359V228H66.0254V222.955C66.0254 221.424 65.0205 220.501 63.2227 220.501C61.6504 220.501 60.5293 221.28 60.3379 222.436L60.3311 222.477H61.5205L61.5273 222.456C61.7188 221.882 62.2998 221.554 63.1816 221.554C64.2822 221.554 64.8359 222.046 64.8359 222.955V223.625L62.7236 223.755C61.0078 223.857 60.0371 224.616 60.0371 225.929V225.942C60.0371 227.282 61.0967 228.13 62.498 228.13ZM61.2539 225.915V225.901C61.2539 225.17 61.7461 224.773 62.8672 224.705L64.8359 224.582V225.252C64.8359 226.305 63.9541 227.098 62.7441 227.098C61.8896 227.098 61.2539 226.66 61.2539 225.915ZM68.1992 228H69.3887V223.639C69.3887 222.347 70.1338 221.554 71.3096 221.554C72.4854 221.554 73.0322 222.189 73.0322 223.516V228H74.2217V223.229C74.2217 221.479 73.2988 220.501 71.6445 220.501C70.5576 220.501 69.8672 220.959 69.498 221.738H69.3887V220.631H68.1992V228ZM79.3896 228.13C81.1602 228.13 82.1514 227.18 82.4521 225.847L82.4658 225.771L81.29 225.778L81.2764 225.819C81.0029 226.64 80.374 227.077 79.3828 227.077C78.0703 227.077 77.2227 225.99 77.2227 224.295V224.281C77.2227 222.62 78.0566 221.554 79.3828 221.554C80.4424 221.554 81.0986 222.142 81.2832 222.866L81.29 222.887H82.4727L82.4658 222.846C82.2471 221.533 81.1738 220.501 79.3828 220.501C77.3184 220.501 76.0059 221.991 76.0059 224.281V224.295C76.0059 226.633 77.3252 228.13 79.3896 228.13ZM87.2168 228.13C88.9531 228.13 90.0059 227.146 90.2588 226.147L90.2725 226.093H89.083L89.0557 226.154C88.8574 226.599 88.2422 227.07 87.2441 227.07C85.9316 227.07 85.0908 226.182 85.0566 224.657H90.3613V224.192C90.3613 221.991 89.1445 220.501 87.1416 220.501C85.1387 220.501 83.8398 222.06 83.8398 224.336V224.343C83.8398 226.653 85.1113 228.13 87.2168 228.13ZM87.1348 221.561C88.2217 221.561 89.0283 222.251 89.1514 223.707H85.0771C85.207 222.306 86.041 221.561 87.1348 221.561Z" fill="black"/>
<path d="M199.293 200.707C199.683 201.098 200.317 201.098 200.707 200.707L207.071 194.343C207.462 193.953 207.462 193.319 207.071 192.929C206.681 192.538 206.047 192.538 205.657 192.929L200 198.586L194.343 192.929C193.953 192.538 193.319 192.538 192.929 192.929C192.538 193.319 192.538 193.953 192.929 194.343L199.293 200.707ZM199 150L199 200L201 200L201 150L199 150Z" fill="#4486AB"/>
<defs>
<clipPath id="clip0_3181_16966">
<rect width="15.7208" height="19.0305" fill="white" transform="translate(226 50.8936)"/>
</clipPath>
<clipPath id="clip1_3181_16966">
<rect width="9.08045" height="8.87904" fill="white" transform="translate(11.8916 130.515)"/>
</clipPath>
<clipPath id="clip2_3181_16966">
<rect width="15.7208" height="19.0305" fill="white" transform="translate(226 214.894)"/>
</clipPath>
</defs>
</svg>
